<svg width="69" height="78" viewBox="0 0 69 78" fill="none" xmlns="http://www.w3.org/2000/svg">
<path fill-rule="evenodd" clip-rule="evenodd" d="M34.9953 4.32846C44.2733 -1.6328 66.3024 -3.63072 68.6178 12.9861C70.9169 29.4405 62.0955 39.4463 62.0303 39.4463C65.911 54.6662 55.5079 74.5479 55.5079 74.5479C45.219 83.7578 41.0121 71.6241 41.0121 71.6241C41.0121 71.6241 41.5991 46.0898 34.979 46.301C28.3588 46.5121 28.6687 71.6241 28.6687 71.6241C21.7713 84.2939 13.9935 73.7195 13.9935 73.7195C8.06964 63.8424 5.18399 52.4514 5.69383 40.9569C0.82471 33.5834 -1.01952 24.6302 0.541207 15.9424C6.7374 -10.7452 34.9953 4.32846 34.9953 4.32846ZM29.7264 10.5012V19.9873H20.1875V29.4896H29.7264V38.9756H39.2489V29.4896H48.7878V19.9873H39.2489V10.5012H29.7264Z" fill="#003D58"/>
</svg>
