<?xml version="1.0" encoding="utf-8"?>
<!-- Generator: Adobe Illustrator 25.2.1, SVG Export Plug-In . SVG Version: 6.00 Build 0)  -->
<svg version="1.1" id="Layer_1" xmlns="http://www.w3.org/2000/svg" xmlns:xlink="http://www.w3.org/1999/xlink" x="0px" y="0px"
	 viewBox="0 0 560 288" style="enable-background:new 0 0 560 288;" xml:space="preserve">
<style type="text/css">
	.st0{fill:#FEFEFE;}
	.st1{fill:#0074BC;}
	.st2{fill:#004A9B;}
	.st3{fill:#FBFCFC;}
	.st4{fill:#FCFCFC;}
	.st5{fill:#92BEDA;}
	.st6{fill:#E4F0F5;}
	.st7{fill:#ADD0E4;}
	.st8{fill:#B7D6E7;}
	.st9{fill:#A6CAE0;}
	.st10{fill:#024C9C;}
	.st11{fill:#054E9D;}
	.st12{fill:#09529F;}
	.st13{fill:#125AA4;}
	.st14{fill:#135BA4;}
	.st15{fill:#DCEBF2;}
</style>
<g>
	<path class="st0" d="M354.93,144c0,23.98-0.04,47.96,0.07,71.94c0.01,2.5-0.57,3.07-3.06,3.06c-47.96-0.09-95.92-0.09-143.88,0
		c-2.5,0-3.07-0.56-3.06-3.06c0.09-47.96,0.09-95.92,0-143.88c0-2.5,0.56-3.07,3.06-3.06c47.96,0.09,95.92,0.09,143.88,0
		c2.5,0,3.07,0.56,3.06,3.06C354.89,96.04,354.93,120.02,354.93,144z"/>
	<path class="st1" d="M280.03,196.74c-8.65,0.05-17.31,0.41-25.95,0.1c-15.02-0.55-28.17-12.88-29.11-27.85
		c-1.09-17.27-1.12-34.61-0.01-51.88c1.01-15.7,14.65-27.88,30.46-28.02c14.98-0.13,29.96-0.08,44.94-0.02
		c17.54,0.06,31.15,12.23,31.95,29.75c0.73,15.94,0.21,31.94,0.21,47.92c0,0.46-0.31,0.93-0.47,1.39c-1.72-1.53-1.45-3.62-1.48-5.58
		c-0.08-5.32-0.28-10.65,0.04-15.95c0.32-5.23-1.16-9.42-5.26-12.74c-2.05-1.66-3.62-3.85-5.85-5.53c-0.2-0.47-0.93,0.53-0.42,0.09
		c0.17-0.14,0.32-0.06,0.43,0.26c1.64,4.69,1.05,9.43,0.24,14.15c-0.14,0.82-0.85,1.4-1.84,1.28c-2.33-3.31-1.23-7.09-1.3-10.66
		c-0.17-8.94-0.13-9.01-8.83-9.02c-8.82-0.01-17.64-0.02-26.45,0.01c-3.55,0.01-6.95-0.06-9.5-3.21c-1.23-1.52-2.89-1.55-4.21,0.19
		c-0.81,1.06-1.57,2.41-2.96,2.52c-5.29,0.4-7.86,4.49-11.01,7.82c-1.92,1.89-3.93,3.68-5.79,5.63c-2.22,2.18-4.65,4.17-6.21,6.94
		c-1.04,1.46-1.48,3.08-1.35,4.87c0.03,0.45,0.03,0.89,0.03,1.34c-0.3,3.5,0.73,5.99,4.7,6.39c0.95,0.1,1.86,0.51,2.24,1.56
		c-1.77,1.47-1.29,2.42,0.29,3.96c9.83,9.59,19.5,19.34,29.16,29.09C278.15,193,280.25,194.16,280.03,196.74z"/>
	<path class="st2" d="M239.12,149.3c-0.09-2.05-0.54-4.23,1.95-5.34c1.62-1.43,3.62-1.57,5.62-1.55c21.7,0.19,43.41,0,65.11-0.01
		c2.15,0,4.35-0.06,6.13,1.5c2.06-3.72,0.62-7.74,0.98-11.61c0.17-1.76,0.03-3.55,0.03-5.33c0.43-0.31,0.86-0.62,1.28-0.93
		c3.55,3.82,7.08,7.66,10.64,11.47c1.29,1.38,1.01,3.09,1.02,4.72c0.06,8.63,0.1,17.27,0.15,25.9
		c-0.53,15.02-13.58,28.09-29.1,28.71c-7.62,0.31-15.27-0.05-22.91-0.11c-11.47-11.56-22.95-23.11-34.4-34.69
		c-0.74-0.75-2.27-1.34-1.65-2.63c0.23-0.48,1.81-0.32,2.77-0.45c0.84,0.24,1.38,0.87,1.96,1.47c3.94,4,5.85,4.04,9.13-0.37
		c1.79-2.41,3.89-3.42,6.76-3.42c8.99,0,17.98-0.04,26.97,0.02c2.68,0.02,4.61,0.98,6.2,3.37c2.99,4.5,5.56,4.53,8.87,0.22
		c1.64-2.14,3.54-3.32,6.15-3.78c2.72-0.48,4.14-2.05,3.12-4.98c-1.54-1.86-3.66-0.96-5.52-1.12c-2.41-0.21-4.94,0.35-7.08-1.29
		c-1.05-1.31-1.63-3.34-4.01-2.6c-1.49,0.15-3.09-0.77-4.46,0.49c-2.15,1.91-4.32,2.95-6.69,0.27c-0.69-0.79-1.76-0.71-2.72-0.83
		c-2.6,0.41-5.35-0.65-7.83,0.87c-1.68,1.72-3.65,2.92-6.07,2.98c-9.88,0.25-19.77,0.19-29.65,0.04
		C240.86,150.27,239.94,149.91,239.12,149.3z"/>
	<path class="st3" d="M317.93,143.9c-25.62,0.02-51.24,0.04-76.86,0.06c0.96-3.19,3.72-4.85,5.94-6.97
		c0.83-0.32,1.38,0.14,1.92,0.66c3.1,3.32,7.06,2,10.71,1.78c2.18-0.13,2.14-2.26,2.04-3.89c-0.13-2.06,0.87-4.42-0.92-6.09
		c-0.83-0.77-1.81,0.25-2.59,0.83c-1.68,1.25-2.89,3.27-5.36,3.18c-0.76-0.31-1.29-0.74-0.91-1.67c3.73-3.74,6.01-9.48,12.77-9.02
		c1.34,0.09,1.09-1.37,1.32-2.28c0.51-2.04,2.09-2.3,3.87-2.34c1.88-0.05,3.54,0.51,3.72,2.48c0.26,2.83,2.06,2.34,3.87,2.33
		c11.65-0.04,23.3,0.08,34.95-0.1c4.1-0.06,5.78,1.51,5.65,5.56C317.88,133.58,317.96,138.75,317.93,143.9z"/>
	<path class="st4" d="M317.8,150.1c0.6,7.17,0.44,7.5-6.33,7.97c-1.87,0.13-2.55,0.88-3.13,2.41c-1.04,2.77-3.19,4.29-6.12,4.27
		c-2.96-0.02-5.19-1.66-5.97-4.44c-0.64-2.28-2.05-2.18-3.75-2.18c-9.81,0.02-19.63,0.01-29.44,0c-1.5,0-2.84-0.16-3.46,1.85
		c-0.98,3.21-3.38,4.99-6.78,4.72c-3.42-0.27-5.19-2.63-6.07-5.76c-0.36-0.28-0.69-0.75-1.08-0.81c-6.99-0.96-7.12-1.11-6.51-8.06
		c0.83-0.78,1.86-0.58,2.84-0.58c14.09-0.05,28.16-0.11,42.25-0.82C295.42,148.13,306.64,148.97,317.8,150.1z"/>
	<path class="st5" d="M317.8,150.1c-26.21,0-52.42,0-78.63-0.01c-0.05-0.26-0.06-0.53-0.04-0.8c9.05-0.03,18.11-0.14,27.16-0.04
		c4.4,0.05,8.73,0.28,11.79-3.72c2.74,1.68,5.39,1.9,7.9-0.46c1.03,1.05,3.5-1.57,4.01,2.34c0.31,2.36,2.79-2.24,4.94-1.54
		c1.36,1.4,3.12,1.28,4.85,1.28c1.14,0.02,2.15,0.55,3.21,0.84c2.63,2.18,5.77,0.83,8.65,1.23
		C313.69,149.51,315.94,148.43,317.8,150.1z"/>
	<path class="st6" d="M248.11,138.17c-0.36-0.39-0.73-0.78-1.09-1.17c1.25-2.09,2.9-3.8,4.89-5.2c0.41,0.42,0.83,0.84,1.24,1.27
		C252.88,136.16,251.15,137.81,248.11,138.17z"/>
	<path class="st7" d="M285.96,145.08c-1.11,1.16-0.96,4.37-3.4,3.15c-1.47-0.74-5,1.3-4.5-2.69
		C280.7,145.39,283.33,145.23,285.96,145.08z"/>
	<path class="st8" d="M299.95,147.95c-2.06,0.26-4.45,1.3-5.03-2.07c1.26-0.81,2.52-0.77,3.8-0.05
		C300.54,145.71,300.59,146.63,299.95,147.95z"/>
	<path class="st9" d="M299.95,147.95c0.01-0.95-0.34-1.69-1.23-2.11c2.08-0.57,5.12-3.04,4.26,2.16
		C301.94,149.63,300.96,148.21,299.95,147.95z"/>
	<path class="st10" d="M279.29,126.1c1.16,0,2.32,0,3.48,0c7.76,0,7.78,0,7.74,7.52c-0.04,8.43,0.5,6.97-7.24,7.09
		c-3.98,0.06-7.95,0.03-11.93-0.01c-1.43-0.02-3.31,0.33-3.4-1.85c-0.15-3.64-0.11-7.29-0.02-10.93c0.05-1.87,1.55-1.82,2.92-1.82
		C273.66,126.11,276.48,126.1,279.29,126.1z"/>
	<path class="st11" d="M248.11,138.17c1.95-1.44,3.7-3.07,5.04-5.11c1.93-1.8,3.71-3.82,5.84-5.33c2.21-1.57,4.24-2,4.49,2
		c0.71,11.05,0.8,11.13-10.3,10.91C251.37,140.61,248.07,142.46,248.11,138.17z"/>
	<path class="st12" d="M305.57,126.59c4.03,0.02,7.3,3.33,7.21,7.28c-0.09,3.89-3.62,7.21-7.5,7.04c-3.75-0.16-6.89-3.37-6.96-7.09
		C298.24,129.86,301.55,126.56,305.57,126.59z"/>
	<path class="st13" d="M249.99,158.09c0.33-1.99,1.47-3.22,3.61-3.1c1.87,0.11,3.08,1.33,3.14,3.15c0.07,2.11-1.33,3.44-3.35,3.46
		C251.35,161.63,250.15,160.29,249.99,158.09z"/>
	<path class="st14" d="M298.99,158.09c0.25-1.94,1.38-3.17,3.51-3.11c1.92,0.06,3.07,1.33,3.15,3.12c0.1,2.07-1.18,3.51-3.25,3.52
		C300.39,161.64,299.09,160.42,298.99,158.09z"/>
	<path class="st15" d="M310.99,133.52c-2.98,0.83-3.85,3.3-5.32,5.21c-1.35-2.08-2.98-3.86-5.13-5.13c1.68-1.62,3.33-4.45,5.05-4.49
		C307.17,129.08,308.09,132.82,310.99,133.52z"/>
</g>
</svg>
