<?xml version="1.0" encoding="utf-8"?>
<!-- Generator: Adobe Illustrator 25.2.1, SVG Export Plug-In . SVG Version: 6.00 Build 0)  -->
<svg version="1.1" id="Layer_1" xmlns="http://www.w3.org/2000/svg" xmlns:xlink="http://www.w3.org/1999/xlink" x="0px" y="0px"
	 viewBox="0 0 560 288" style="enable-background:new 0 0 560 288;" xml:space="preserve">
<style type="text/css">
	.st0{fill:#FEFEFE;}
	.st1{fill:#D9D3BE;}
	.st2{fill:#191919;}
	.st3{fill:#FDCD04;}
	.st4{fill:#140C78;}
	.st5{fill:#2956A4;}
	.st6{fill:#FDFDFD;}
	.st7{fill:#9B8A5F;}
	.st8{fill:#9E968C;}
	.st9{fill:#C0BAAE;}
	.st10{fill:#958D85;}
	.st11{fill:#BFB9B0;}
	.st12{fill:#AFA89F;}
	.st13{fill:#F20103;}
	.st14{fill:#DBB5A3;}
	.st15{fill:#DAA798;}
	.st16{fill:#DE8076;}
	.st17{fill:#B3B3B3;}
	.st18{fill:#A8A8A8;}
	.st19{fill:#616161;}
	.st20{fill:#FDCD01;}
	.st21{fill:#F6CBCD;}
	.st22{fill:#ECB8BB;}
	.st23{fill:#F6DBDC;}
	.st24{fill:#F6D6D7;}
	.st25{fill:#F9EEEE;}
	.st26{fill:#F09B9D;}
	.st27{fill:#EC6C70;}
	.st28{fill:#F6E1E1;}
	.st29{fill:#EE6A6D;}
	.st30{fill:#EF8A8D;}
	.st31{fill:#F9E8E9;}
	.st32{fill:#F2BFC0;}
	.st33{fill:#E8B5B7;}
	.st34{fill:#F6B4B7;}
	.st35{fill:#F6F0F1;}
	.st36{fill:#F5DADB;}
	.st37{fill:#F17F82;}
	.st38{fill:#F19395;}
	.st39{fill:#F4D4D5;}
	.st40{fill:#F5CCCE;}
	.st41{fill:#F1CACD;}
	.st42{fill:#EC7072;}
	.st43{fill:#F5DDDE;}
	.st44{fill:#F7E7E8;}
	.st45{fill:#FAE1E6;}
	.st46{fill:#F0787C;}
	.st47{fill:#F3DADB;}
	.st48{fill:#DD9084;}
	.st49{fill:#F5ADB0;}
	.st50{fill:#F1D5D6;}
	.st51{fill:#F3D8D9;}
	.st52{fill:#EC7D80;}
	.st53{fill:#F4CECF;}
</style>
<g>
	<path class="st0" d="M279.96,65.03c47.63,0,95.25,0,142.88-0.03c0.98,0,1.16,0.2,1.16,1.17c-0.03,52.17-0.03,104.35,0,156.52
		c0,0.93-0.13,1.19-1.15,1.19c-95.25-0.03-190.5-0.03-285.75-0.01c-0.91,0-1.1-0.21-1.1-1.11c0.02-52.21,0.02-104.43,0-156.64
		c0-0.87,0.14-1.12,1.08-1.12C184.71,65.03,232.33,65.03,279.96,65.03z"/>
	<path class="st1" d="M174.87,70.09c6.73,0,13.47,0,20.2,0c0.17,0.38,0.09,0.79,0.09,1.18c0,15.51,0,31.02,0,46.53
		c0,0.39,0.1,0.8-0.11,1.18c-0.02,0.1-0.05,0.21-0.07,0.31c-0.19,0.4-0.52,0.66-0.88,0.9c-0.9,0.54-1.79,1.09-2.9,1.01
		c-0.43-0.02-0.86,0.08-1.29-0.02c-2.6,0.02-5.2-0.09-7.8,0.06c-0.64,0.18-1.31-0.12-1.94,0.17c-1.26,0.42-2.62,0.51-3.79,1.21
		c-0.35,0.15-0.59,0.41-0.76,0.74c-0.02,0.31-0.14,0.57-0.45,0.7c-0.83-0.22-0.6-0.92-0.6-1.45c-0.03-3.91-0.01-7.83-0.01-11.74
		c0-0.88,0-1.76,0-2.64c0.01-7.75,0-15.51,0-23.26c0.01-4.42,0-8.85,0.01-13.27C174.56,71.14,174.46,70.56,174.87,70.09z"/>
	<path class="st2" d="M282.4,176.25c-0.76,0.02-1.52-0.02-2.27,0.07c-1.07,0.12-1.7-0.15-2.08-1.31c-0.85-2.58-1.88-5.1-2.84-7.64
		c-0.65-1.72-1.32-3.43-2.21-5.11c0,1.33,0,2.66,0,3.99c0,2.95-0.05,5.91,0.03,8.86c0.03,1.03-0.31,1.32-1.27,1.21
		c-0.59-0.07-1.19,0.01-1.79,0.02c-0.29-0.35-0.15-0.76-0.15-1.14c-0.01-3.89,0-7.77-0.02-11.66c0-0.36,0.3-0.88-0.31-1.1
		c-1.21,3.1-2.43,6.19-3.63,9.29c-0.5,1.28-1.02,2.55-1.42,3.85c-0.18,0.59-0.44,0.75-1,0.74c-0.92-0.03-1.83-0.01-2.87-0.01
		c0.39-1.57,1.1-2.93,1.67-4.33c1.38-3.41,2.81-6.79,4.24-10.17c0.13-0.31,0.04-0.52-0.07-0.78c-1.6-4.08-3.19-8.16-4.78-12.24
		c-0.17-0.43-0.35-0.85-0.59-1.43c1.11,0,2.16,0,3.22,0c0.66,0,0.69,0.59,0.83,1c1.39,3.91,2.76,7.83,4.13,11.75
		c0.05,0.14,0.17,0.27,0.25,0.4c0.63-0.2,0.32-0.72,0.32-1.08c0.03-3.65,0.01-7.31,0.02-10.96c0-0.38-0.15-0.79,0.15-1.14
		c0.24,0.01,0.48,0.03,0.72,0.03c2.32,0.01,2.32,0.01,2.32,2.4c0,3.71,0,7.42,0,11.13c0.06,0.02,0.12,0.03,0.18,0.05
		c0.64-1.78,1.28-3.55,1.91-5.33c0.93-2.62,1.87-5.23,2.74-7.87c0.16-0.48,0.43-0.37,0.71-0.37c1-0.02,1.99-0.01,3.13-0.01
		c-1.14,2.91-2.24,5.74-3.36,8.58c-0.63,1.6-1.27,3.2-1.91,4.8c-0.19,0.48-0.23,0.94-0.01,1.45c1.82,4.33,3.62,8.67,5.43,13.01
		c0.12,0.28,0.15,0.64,0.57,0.66C282.51,175.99,282.52,176.12,282.4,176.25z"/>
	<path class="st2" d="M267.5,199.43c0.03,2.38,0.05,4.77,0.08,7.15c0.12,1.94,0.02,3.88,0.06,5.82c0.01,0.39-0.1,0.79,0.11,1.16
		c0,0.85,0,1.7-0.01,2.56c-0.83,0.36-1.69,0.11-2.53,0.15c-0.46,0.03-0.43-0.35-0.45-0.67c-0.06-0.78,0.14-1.56-0.12-2.33
		c-0.02-4.08-0.05-8.15-0.07-12.23c-0.15-0.81,0.08-1.65-0.13-2.45c-0.12-0.45-0.12,0.14-0.23,0.07c-0.61,2.51-1.24,5.02-1.83,7.53
		c-0.78,3.31-1.54,6.63-2.32,9.95c-0.7,0.28-1.43,0.12-2.14,0.09c-1.06-3.46-1.69-7.03-2.57-10.53c-0.64-2.55-1.22-5.12-2.02-7.66
		c0,3.38,0,6.75,0,10.12c-0.22,2.34-0.09,4.68-0.08,7.02c0.01,0.9-0.25,1.23-1.14,1.1c-0.62-0.09-1.27,0.13-1.88-0.13
		c0-2.15,0-4.3,0-6.45c0.26-1.81,0.04-3.62,0.12-5.44c0.02-0.59-0.07-1.19,0.06-1.77c0.02-2.32,0.04-4.63,0.06-6.95
		c0.26-1.81,0.04-3.63,0.12-5.44c0.02-0.59-0.08-1.19,0.07-1.77c0.02-0.32,0.03-0.64,0.05-0.95c1.12-0.21,2.24-0.21,3.35,0
		c0.72,3.28,1.44,6.57,2.16,9.85c0.8,3.64,1.6,7.28,2.4,10.92c0.05,0.24,0.06,0.48,0.38,0.53c1.56-6.99,3.13-13.99,4.69-20.98
		c0.05-0.2,0.15-0.4,0.36-0.4c1.07-0.01,2.14-0.23,3.19,0.12c0.03,1.66,0.05,3.33,0.08,4.99c0.12,1.94,0.02,3.89,0.06,5.83
		C267.41,198.65,267.31,199.06,267.5,199.43z"/>
	<path class="st2" d="M229.62,177.26c0.14-0.69-0.04-0.98-0.84-0.97c-3.64,0.04-7.27,0.06-10.91-0.01
		c-0.99-0.02-1.38,0.23-1.25,1.22c0.05,0.39,0.01,0.8,0.01,1.19c-0.26,0.72,0.02,1.48-0.17,2.2c0.04,0.81-0.54,0.68-1.04,0.69
		c-1.9,0.02-1.9,0.02-1.9-1.83c0-2.1,0-4.21,0-6.31c0.34-0.23,0.79,0.07,1.12-0.22c2.31-2.07,2.93-4.85,3.19-7.75
		c0.04-0.47,0.44-0.85,0.26-1.35c0.26-0.37,0-0.83,0.19-1.21c0.02-0.31,0.04-0.62,0.05-0.93c0.26-0.46-0.01-0.99,0.19-1.46
		c0.02-0.47,0.04-0.94,0.05-1.41c0.27-0.63-0.01-1.3,0.17-1.94c0.03-0.85,0.06-1.71,0.09-2.56c0.26-0.89-0.04-1.82,0.17-2.72
		c0.02-0.8,0.03-1.59,0.05-2.39c0.36-0.69-0.15-1.49,0.29-2.16c3.23,0.01,6.46,0.06,9.69,0c1-0.02,1.34,0.16,1.33,1.27
		c-0.06,7.77-0.03,15.55-0.03,23.32c0,0.43,0.06,0.87,0.09,1.3c0.57,0.27,1.17,0.07,1.75,0.12c0.33,0.03,0.68,0.02,0.66,0.47
		c-0.08,2.6,0.2,5.2-0.14,7.8c-0.19-0.01-0.39-0.03-0.58-0.03c-2.15-0.02-2.15-0.02-2.3-2.12
		C229.59,178.74,229.89,177.97,229.62,177.26z"/>
	<path class="st2" d="M234.34,191.95c0.02-0.87,0.05-1.74,0.07-2.62c0.02-0.04,0.05-0.07,0.05-0.11c0.23-1.96,0.23-1.96,2.32-1.96
		c2.58,0,5.15-0.01,7.73,0.01c0.39,0,0.79-0.11,1.16,0.12c0,8.09,0,16.17,0,24.26c0,1.65,0,1.65,1.59,1.65c0.28,0,0.56,0,0.84,0
		c0.15,2.72,0.15,5.44,0,8.17c-0.91-0.03-2.09,0.27-2.66-0.19c-0.6-0.48-0.23-1.72-0.28-2.62c-0.14-2.44-0.13-2.44-2.54-2.44
		c-3.19,0-6.39,0.03-9.58-0.02c-0.84-0.01-1.09,0.22-1.06,1.06c0.03,1.11-0.16,2.23-0.16,3.34c0,0.76-0.31,0.88-1,0.88
		c-1.93-0.02-1.93,0.01-1.93-1.92c0-1.84,0.02-3.67-0.01-5.51c-0.01-0.53,0.06-0.8,0.7-0.76c1.12,0.07,1.39-1.01,1.76-1.67
		c1.36-2.45,1.97-5.15,2.11-7.94c0.03-0.63,0.48-1.19,0.26-1.84c0.22-0.39,0.02-0.84,0.16-1.24c0.03-0.55,0.05-1.09,0.08-1.64
		c0.26-0.64-0.02-1.32,0.17-1.96c0.02-0.8,0.04-1.59,0.06-2.39C234.46,193.73,234.16,192.82,234.34,191.95z"/>
	<path class="st2" d="M365.66,187.39c0,8.27,0.02,16.55-0.02,24.82c0,0.91,0.22,1.14,1.11,1.1c2.03-0.09,4.07-0.06,6.11-0.08
		c0.24-0.41,0.12-0.86,0.12-1.29c0.01-7.78,0.01-15.57,0.01-23.35c0-1.32,0-1.32,1.26-1.32c2.57-0.01,2.57-0.01,2.57,2.52
		c0,7.38,0,14.77,0.01,22.15c0,0.43-0.12,0.88,0.12,1.29c2.36,0.19,2.36,0.19,2.36,2.64c0,1.56-0.02,3.12,0.01,4.68
		c0.01,0.61-0.07,0.91-0.82,0.92c-2.16,0.03-2.16,0.07-2.26-2.07c-0.01-0.28-0.04-0.56-0.06-0.83c-0.22-0.7,0.12-1.45-0.2-2.14
		l0-0.01c-0.41-0.24-0.86-0.12-1.29-0.12c-3.87-0.01-7.74-0.03-11.61,0.01c-0.88,0.01-1.15-0.2-1.15-1.12
		c0.04-8.94,0.03-17.87,0-26.81c0-0.89,0.22-1.24,1.13-1.13C363.92,187.37,364.8,187.13,365.66,187.39z"/>
	<path class="st3" d="M206.53,141.87l-0.03,0.06l0.04,0.05c-0.2,0.46-0.1,0.95-0.1,1.42c-0.01,23.87,0,47.73-0.01,71.6
		c0,0.47,0.09,0.96-0.08,1.43c-1.13,0-2.25,0-3.38,0c-0.22-0.33-0.12-0.7-0.12-1.05c0-24.32,0-48.65,0-72.97
		c0-0.16,0-0.32,0.02-0.48c1.03-0.84,2.19-0.43,3.31-0.34C206.32,141.64,206.44,141.74,206.53,141.87z"/>
	<path class="st4" d="M206.38,141.8c-1.13,0-2.27,0-3.4,0c-0.24-0.41-0.12-0.86-0.12-1.29c-0.01-24.01-0.01-48.02,0-72.03
		c0-0.43-0.12-0.88,0.12-1.29c1.13,0,2.25,0,3.38-0.01c0.16,0.39,0.09,0.79,0.09,1.18c0,24.08,0,48.16,0,72.25
		C206.44,141.01,206.5,141.41,206.38,141.8z"/>
	<path class="st2" d="M299.25,147.33c2.38,0.17,4.76-0.06,7.15,0.18c3.82,0.39,5.13,2.26,5.71,5.22c0.04,0.19,0.06,0.39,0.09,0.59
		c0.11,0.88,0.11,1.75,0,2.63c-0.29,2.13-1.07,3.95-3.36,4.91c3.08,1.08,3.79,3.47,4.08,6.14c0.11,0.63,0.09,1.27,0.01,1.91
		c-0.17,1.17-0.32,2.32-0.74,3.45c-1.02,2.71-3.06,3.84-5.79,3.94c-2.38,0.09-4.77,0.03-7.15,0.04c-0.28-0.26-0.16-0.6-0.16-0.9
		c-0.01-9.06-0.01-18.13,0-27.19C299.08,147.93,298.97,147.59,299.25,147.33z"/>
	<path class="st2" d="M395.99,204.42c-1.6,3.85-3.1,7.74-4.43,11.7c-1.43,0.26-2.85,0.31-4.28-0.03c1.68-3.95,3.36-7.9,5.04-11.84
		c0.25-0.59,0.28-0.91-0.39-1.41c-1.67-1.25-2.58-3.04-2.81-5.15c-0.18-0.39,0.07-0.84-0.18-1.22c0.12-1.52-0.04-3.04,0.46-4.56
		c0.79-2.39,2.39-3.71,4.74-4.25c0.66-0.15,1.33-0.22,2-0.33c2.16-0.06,4.32-0.19,6.47,0.07c0,9.59,0,19.18,0,28.77
		c-1.28,0.17-2.55,0.27-3.82-0.04c0-3.9,0.12-7.8-0.06-11.7C397.82,204.22,396.9,204.21,395.99,204.42z"/>
	<path class="st2" d="M278.56,216.16c0-9.59,0-19.18,0-28.77c1.02-0.26,2.06-0.07,3.09-0.12c0.8-0.04,0.62,0.56,0.62,0.99
		c0.01,3.39,0,6.79,0.01,10.18c0,0.39-0.11,0.8,0.12,1.17l0,0c2.14,0.21,4.29,0.2,6.43,0c0.18-4.06,0.06-8.12,0.06-12.18
		c1.27-0.27,2.54-0.27,3.81,0c0,9.56,0,19.12,0,28.68c-1.27,0.27-2.54,0.27-3.81,0c0.01-4.22,0.02-8.44,0.03-12.66
		c0-0.41,0.06-0.8-0.57-0.77c-1.98,0.09-3.97-0.14-5.94,0.13c-0.23,0.37-0.12,0.78-0.12,1.16c-0.01,3.74-0.04,7.47,0.02,11.21
		c0.01,0.91-0.26,1.22-1.14,1.11C280.3,216.19,279.42,216.43,278.56,216.16z"/>
	<path class="st2" d="M220.25,136.57c-3-0.36-4.54-2.43-5.25-5.52c-0.29-1.25-0.27-2.51-0.27-3.77c0-4.47-0.19-8.96,0.08-13.42
		c0.18-3.02,1.27-6.17,5.92-6.68c0.8-0.08,1.59-0.09,2.38,0.01c3.89,0.58,5.37,3.14,5.76,6.57c0.54,4.73,0.23,9.48,0.2,14.21
		c-0.01,2.56-0.4,5.13-2.44,7.1c-0.88,0.85-1.97,1.12-3.04,1.5C222.49,136.68,221.37,136.68,220.25,136.57z"/>
	<path class="st2" d="M306.1,96.44c-1.17,0-2.34,0-3.51,0.01c-0.3-0.39-0.15-0.85-0.15-1.27c-0.01-7.77-0.01-15.54-0.01-23.31
		c0-0.43,0.14-0.88-0.13-1.28l-0.03-0.03c-2.22-0.24-4.45-0.22-6.67-0.02l0,0c-0.24,0.41-0.12,0.86-0.12,1.29
		c-0.01,7.78,0,15.56-0.01,23.34c0,0.42,0.17,0.88-0.16,1.26c-1.16,0-2.33,0-3.49,0c-0.28-0.26-0.16-0.6-0.16-0.9
		c-0.01-9.06-0.01-18.13,0-27.19c0-0.3-0.12-0.65,0.16-0.9c4.76,0,9.53,0,14.29,0c0.28,0.26,0.16,0.6,0.16,0.9
		c0.01,9.06,0.01,18.13,0,27.19C306.26,95.84,306.38,96.18,306.1,96.44z"/>
	<path class="st2" d="M319.35,159.71c2.16,0.2,4.32,0.2,6.48,0c0.26-0.66,0.11-1.34,0.12-2.01c0.02-3.07,0-6.15,0.02-9.22
		c0-0.38-0.14-0.8,0.15-1.15c0.92,0.01,1.84,0.06,2.75,0.02c0.61-0.03,0.83,0.14,0.82,0.79c-0.02,9.13-0.02,18.27,0,27.4
		c0,0.65-0.21,0.81-0.82,0.79c-0.91-0.04-1.83,0.01-2.75,0.02c-0.29-0.35-0.15-0.76-0.15-1.15c-0.01-3.69,0-7.39-0.01-11.08
		c0-0.38,0.13-0.8-0.14-1.15l-0.03-0.03c-2.13-0.24-4.26-0.24-6.39,0l-0.03,0.03c-0.26,0.36-0.13,0.77-0.14,1.15
		c-0.01,3.69,0,7.39-0.01,11.08c0,0.38,0.14,0.8-0.15,1.15c-0.32-0.01-0.64-0.03-0.96-0.03c-2.57-0.01-2.57-0.01-2.57-2.63
		c0-8.29,0.03-16.59-0.04-24.88c-0.01-1.27,0.37-1.59,1.53-1.45c0.67,0.08,1.35,0,2.03-0.01c0.29,0.35,0.15,0.77,0.15,1.15
		c0.01,3.35,0,6.71,0.01,10.06C319.23,158.93,319.12,159.34,319.35,159.71z"/>
	<path class="st2" d="M307.53,119.73c0.02-4.07,0.04-8.15,0.06-12.22c1.02-0.26,2.06-0.06,3.08-0.13c0.46-0.03,0.66,0.18,0.63,0.64
		c-0.01,0.2,0,0.4,0,0.6c0,8.85-0.02,17.7,0.02,26.56c0,0.99-0.26,1.37-1.25,1.24c-0.82-0.11-1.67,0.14-2.48-0.13
		c0-4.16-0.02-8.31,0.02-12.47c0.01-0.79-0.22-1.01-0.99-0.97c-1.83,0.07-3.67,0.06-5.51,0.08c-0.23,0.37-0.12,0.78-0.12,1.17
		c-0.01,3.75-0.03,7.51,0.01,11.26c0.01,0.83-0.22,1.08-1.07,1.08c-2.78-0.01-2.78,0.02-2.78-2.7c0-8.35,0-16.69,0-25.04
		c0-1.3,0-1.3,1.28-1.31c2.55-0.01,2.55-0.01,2.55,2.56c0,2.96,0.03,5.91-0.02,8.86c-0.01,0.84,0.24,1.12,1.08,1.07
		C303.87,119.75,305.71,120.01,307.53,119.73z"/>
	<path class="st2" d="M249.72,123.57c0.02-0.62,0.04-1.25,0.06-1.87c0.27-0.72-0.03-1.48,0.17-2.2c0.02-0.69,0.05-1.39,0.07-2.08
		c0.24-0.65-0.01-1.34,0.15-2c0.02-0.72,0.05-1.43,0.07-2.15c0.29-0.7-0.01-1.46,0.18-2.17c0.02-0.7,0.05-1.41,0.07-2.11
		c0.24-1.61,0.24-1.61,2-1.61c2.86,0,5.72,0,8.58,0.01c0.39,0,0.8-0.11,1.16,0.12c0,9.59,0,19.18,0,28.77
		c-1.02,0.26-2.06,0.06-3.09,0.13c-0.46,0.03-0.65-0.19-0.63-0.64c0.01-0.28,0-0.56,0-0.84c0-7.67,0-15.34-0.01-23.01
		c0-0.43,0.12-0.88-0.12-1.29l0,0c-1.45-0.22-2.91-0.18-4.37-0.02c-0.39,0.84-0.16,1.73-0.21,2.6c-0.27,0.8,0.03,1.64-0.18,2.45
		c-0.02,0.72-0.03,1.43-0.05,2.15c-0.29,0.79,0.02,1.62-0.18,2.41c-0.02,0.78-0.05,1.57-0.07,2.35c-0.26,0.64,0.02,1.32-0.17,1.96
		c-0.02,0.48-0.04,0.95-0.06,1.43c-0.28,0.46,0.01,0.99-0.19,1.45c-0.4,1.91-0.52,3.9-1.38,5.7c-0.81,1.69-2.06,2.86-3.95,3.25
		c-0.72,0.02-1.44,0.23-2.14-0.11c0.01-0.24,0.04-0.48,0.02-0.71c-0.06-1.17-0.15-2.19,1.46-2.58c1.56-0.38,1.73-2.04,2.05-3.31
		c0.35-1.41,0.38-2.9,0.55-4.35C249.81,124.73,249.51,124.12,249.72,123.57z"/>
	<path class="st2" d="M371.62,96.45c-0.92-0.01-1.84-0.06-2.75-0.02c-0.61,0.03-0.83-0.14-0.82-0.79c0.02-9.13,0.02-18.27,0-27.4
		c0-0.65,0.22-0.81,0.82-0.79c0.91,0.04,1.83-0.01,2.75-0.02c0.29,0.35,0.15,0.77,0.15,1.15c0.01,3.46,0,6.92,0.01,10.39
		c0,0.39-0.11,0.8,0.12,1.17l0,0c0.38,0.18,0.76,0.21,1.14,0c1.01-2.74,2.01-5.47,3.02-8.21c0.45-1.24,1.01-2.44,1.33-3.71
		c0.16-0.64,0.44-0.75,0.96-0.75c1,0,1.99,0,3.12,0c-1.09,2.9-2.15,5.7-3.2,8.51c-0.55,1.47-1.03,2.96-1.65,4.4
		c-0.29,0.67-0.25,1.17,0.02,1.84c1.74,4.37,3.39,8.77,5.09,13.15c0.3,0.78,0.27,1.07-0.71,1.06c-2.88-0.03-2.81-0.01-3.77-2.78
		c-0.93-2.69-2.02-5.32-3.03-7.97c-0.4-1.04-0.78-2.1-1.17-3.15c-0.38-0.21-0.77-0.19-1.15,0l0,0c-0.23,0.37-0.12,0.78-0.12,1.17
		c-0.01,3.86,0,7.72-0.01,11.59C371.77,95.68,371.91,96.1,371.62,96.45z"/>
	<path class="st2" d="M245.72,67.44c0.44,0.01,0.87,0.03,1.31,0.03c2.25,0,2.25,0,2.25,2.31c0,3.06,0,6.12,0,9.18
		c0,0.39,0.04,0.79,0.06,1.18c0.37,0.21,0.74,0.19,1.11,0c0.99-2.11,1.64-4.34,2.46-6.51c0.71-1.87,1.43-3.73,2.1-5.61
		c0.14-0.4,0.28-0.58,0.72-0.56c0.8,0.03,1.6,0.03,2.4,0c0.65-0.02,0.82,0.08,0.55,0.79c-1.44,3.73-2.72,7.52-4.25,11.21
		c-0.57,1.38-0.44,2.48,0.08,3.78c1.73,4.32,3.36,8.69,5.08,13.17c-1.15,0-2.21-0.05-3.26,0.02c-0.59,0.04-0.63-0.37-0.76-0.69
		c-0.75-1.88-1.49-3.76-2.18-5.67c-0.91-2.54-1.84-5.07-2.92-7.54c-0.38-0.18-0.76-0.21-1.13,0c-0.02,3.77-0.05,7.55-0.06,11.32
		c-0.01,2.55,0,2.55-2.49,2.55c-0.36,0-0.71,0.02-1.07,0.03c-0.25-0.27-0.15-0.61-0.15-0.91c-0.01-9.06-0.01-18.12,0-27.18
		C245.57,68.04,245.47,67.71,245.72,67.44z"/>
	<path class="st2" d="M235.89,110.61c-0.14,2.88-0.14,5.76,0,8.64c0.52,0.3,1.11-0.02,1.63,0.2c1.21,0.12,2.41,0.25,3.57,0.66
		c2.89,1.02,3.56,3.47,3.93,6.11c0.11,1.04,0.1,2.07,0.01,3.11c-0.32,1.68-0.57,3.38-1.78,4.73c-1.4,1.57-3.29,2-5.24,2.28
		c-1.99,0.04-3.99,0.25-5.98-0.1c0-9.56,0-19.12,0-28.68c0.22-0.26,0.52-0.16,0.79-0.17c3.2-0.01,6.4,0.02,9.59-0.02
		c0.79-0.01,1.03,0.21,1.02,1.01c-0.02,2.12,0.02,2.09-2.04,2.13C239.55,110.53,237.71,110.33,235.89,110.61z"/>
	<path class="st2" d="M303.22,193.63c0.25-1.88,0.75-3.62,2.12-5.06c0.98-1.02,2.24-1.14,3.45-1.47c0.87-0.12,1.75-0.09,2.63-0.01
		c3.78,0.72,4.79,2.86,5.35,6.79c0.04,1.28,0.17,2.56-0.07,3.83c-1.11,0-2.23,0-3.34,0c-0.36-1.44,0.09-2.92-0.23-4.37
		c-0.37-2.15-1.08-2.94-2.75-3.07c-2.09-0.16-3.45,1.05-3.48,3.39c-0.07,5.36-0.07,10.71,0,16.07c0.03,2.18,1.14,3.38,2.72,3.59
		c1.98,0.27,3.56-1.18,3.52-3.54c0.22-1.08,0.03-2.18,0.11-3.27c0.03-0.37-0.16-0.78,0.16-1.12c1.08,0,2.17,0,3.25,0
		c0.34,1.35,0.15,2.7,0.1,4.06c-0.15,1.21-0.37,2.41-0.79,3.55c-0.74,2-2.35,2.95-4.3,3.46c-0.95,0.12-1.91,0.09-2.87,0.02
		c-3.32-0.25-5.12-2.74-5.58-6.55c-0.19-0.47,0.08-1-0.18-1.46c0-4.46,0-8.92,0-13.38C303.31,194.63,303.04,194.1,303.22,193.63z"/>
	<path class="st2" d="M294.39,114.48c-0.01,0.24-0.03,0.47-0.03,0.71c-0.01,2.94-0.02,2.93-3,2.63c-0.5-0.05-0.57-0.24-0.56-0.66
		c0-1.07-0.03-2.14-0.04-3.2c-0.18-0.39,0.08-0.84-0.18-1.21c-0.2-1.78-1.49-2.34-3.25-2.36c-1.57-0.02-2.6,1.06-2.75,2.7
		c-0.03,0.27-0.01,0.55-0.02,0.83c-0.2,0.38-0.1,0.79-0.1,1.18c-0.01,4.52-0.01,9.03,0,13.55c0,0.39-0.1,0.8,0.11,1.17
		c-0.02,1.25,0.2,2.45,1.35,3.16c1.11,0.68,2.26,0.67,3.41-0.02c0.84-0.5,1.05-1.32,1.25-2.17c0.25-0.38,0.01-0.83,0.17-1.22
		c0.02-1.11,0.03-2.23,0.06-3.34c0.01-0.29-0.11-0.69,0.4-0.69c0.92-0.01,1.83-0.02,2.75,0.01c0.48,0.01,0.4,0.41,0.4,0.71
		c0.01,0.92,0.01,1.83,0.02,2.75c-0.22,0.49,0.01,1.02-0.17,1.52c-0.28,1.05-0.47,2.14-0.95,3.12c-0.8,1.63-2.22,2.46-3.9,2.92
		c-1.03,0.14-2.07,0.1-3.11,0.02c-3.68-0.47-5.07-3.27-5.46-6.33c-0.05-0.39-0.08-0.79-0.12-1.18c-0.1-4.79-0.11-9.59,0.01-14.38
		c0.02-1.53,0.39-2.99,0.98-4.38c0.89-2.11,2.76-2.81,4.84-3.12c0.8-0.1,1.59-0.1,2.39,0c3.39,0.46,4.79,2.75,5.34,5.82
		C294.39,113.49,294.12,114.02,294.39,114.48z"/>
	<path class="st2" d="M349.8,74.71c0,1,0.01,2,0.01,3c-1.19,0.28-2.39,0.18-3.59,0.06c-0.02-1.21-0.04-2.42-0.06-3.63
		c-0.15-0.39,0.08-0.84-0.17-1.22c-0.66-2.12-1.67-2.73-3.92-2.38c-1.29,0.2-2.08,1.46-2.1,3.34c-0.15,0.21-0.11,0.46-0.11,0.7
		c0,4.91,0,9.82,0,14.73c0,0.24-0.04,0.48,0.12,0.69c0.02,2.07,0.75,3.1,2.35,3.36c0.53,0.18,1.05,0.15,1.58,0.01
		c1.35-0.35,1.97-1.28,2.09-2.61c0.22-0.39,0.02-0.84,0.16-1.24c0.02-1.03,0.09-2.05,0.05-3.08c-0.02-0.64,0.19-0.77,0.8-0.79
		c2.76-0.06,2.76-0.08,2.77,2.73c0,0.12,0.02,0.24,0.03,0.35c-0.26,0.56,0.02,1.16-0.17,1.72c-0.21,0.84-0.37,1.69-0.63,2.5
		c-0.72,2.18-2.34,3.39-4.53,3.65c-2.31,0.27-4.59,0.25-6.39-1.73c-1.14-1.26-1.48-2.78-1.85-4.32c-0.1-0.42-0.1-0.87-0.14-1.3
		c-0.1-4.87-0.1-9.75,0-14.62c0.16-1.32,0.28-2.62,0.83-3.88c1.45-3.32,4.57-3.68,7.23-3.46c3.61,0.3,4.91,2.77,5.48,5.9
		C349.81,73.68,349.58,74.22,349.8,74.71z"/>
	<path class="st2" d="M336.58,169.13c-0.71,1.84-0.8,3.81-1.13,5.73c-0.16,0.94-0.3,1.55-1.54,1.48c-2.37-0.12-2.31-0.02-1.83-2.38
		c0.7-3.47,1.25-6.96,1.93-10.43c0.76-3.89,1.63-7.76,2.37-11.65c0.25-1.32,0.41-2.65,0.76-3.95c0.07-0.25-0.05-0.58,0.39-0.58
		c1,0.01,2,0,3,0.01c0.39,0,0.38,0.3,0.43,0.59c1.43,7.53,2.88,15.05,4.32,22.58c0.33,1.69,0.61,3.4,1.04,5.07
		c0.19,0.73-0.07,0.73-0.58,0.71c-0.24-0.01-0.48,0-0.72,0c-2.32,0-2.37,0.01-2.59-2.19c-0.17-1.68-0.45-3.33-0.82-4.97
		C339.92,168.94,338.25,168.97,336.58,169.13z"/>
	<path class="st2" d="M233.63,89.24c-0.78,1.74-0.73,3.65-1.12,5.47c-0.35,1.68-0.24,1.7-1.89,1.7c-2.2,0-2.11,0.02-1.63-2.13
		c0.69-3.08,1.23-6.18,1.84-9.28c0.69-3.5,1.38-7.01,2.09-10.5c0.44-2.15,0.65-4.34,1.26-6.45c0.07-0.24-0.07-0.59,0.38-0.59
		c1,0.01,2,0,2.99,0.01c0.47,0.01,0.38,0.39,0.44,0.7c1.27,6.71,2.55,13.43,3.84,20.14c0.48,2.5,0.99,5,1.54,7.49
		c0.12,0.52,0.01,0.65-0.46,0.61c-0.12-0.01-0.24,0-0.36,0c-2.78,0.04-2.74,0.03-3.1-2.75c-0.19-1.48-0.55-2.94-0.83-4.41
		C236.98,89.04,235.31,89.08,233.63,89.24z"/>
	<path class="st2" d="M313.06,89.24c-0.66,1.93-0.79,3.97-1.13,5.96c-0.14,0.8-0.31,1.34-1.29,1.22c-0.83-0.1-1.85,0.31-2.42-0.19
		c-0.29-0.25,0.22-1.41,0.37-2.15c0.79-4,1.7-7.98,2.33-12c0.5-3.2,1.4-6.33,1.76-9.56c0.17-1.56,0.66-3.08,1.01-4.62
		c0.01-0.04-0.02-0.1,0-0.12c0.9-0.72,1.93-0.15,2.89-0.3c0.35-0.05,0.75-0.15,0.87,0.49c0.6,3.25,1.27,6.48,1.9,9.72
		c0.77,3.97,1.53,7.94,2.3,11.9c0.4,2.09,0.8,4.17,1.24,6.25c0.1,0.45-0.04,0.59-0.45,0.57c-0.08,0-0.16,0-0.24,0
		c-2.96,0.13-2.87,0.12-3.31-2.96c-0.2-1.4-0.3-2.85-0.81-4.2C316.4,89.04,314.73,89.08,313.06,89.24z"/>
	<path class="st2" d="M221.72,93.35c1.65-0.44,1.88-1.85,2.03-3.19c0.24-2.22,0.47-4.47-1.47-6.2c-0.64-0.57-1.33-0.94-2.19-0.96
		c-0.47-0.26-1.05,0.1-1.51-0.27c0.01-0.08,0.02-0.16,0.02-0.24c0.01-0.84-0.22-1.78,0.1-2.48c0.34-0.77,1.42-0.28,2.16-0.51
		c2.64-0.82,3.39-3.75,2.91-6c-0.28-1.32-0.67-2.65-2.3-2.96c-0.41-0.19-0.83-0.18-1.25,0c-1.59,0.01-2.33,1.55-2.6,3
		c-0.06,0.34-0.02,0.71-0.02,1.06c0.01,0.98-0.51,1.28-1.42,1.11c-0.23-0.04-0.47-0.01-0.71-0.01c-1.68,0-1.68,0-1.51-1.79
		c0.08-1.25,0.3-2.45,0.87-3.6c1.29-2.62,3.75-3.22,6.44-3.05c2.74,0.18,4.88,1.46,5.67,4.24c0.88,3.08,0.99,6.11-1.53,8.63
		c-0.19,0.19-0.43,0.34-0.66,0.49c-0.22,0.15-0.46,0.27-0.87,0.5c1.67,0.86,2.72,2.13,3.15,3.84c0.7,2.84,0.65,5.66-0.48,8.37
		c-0.91,2.18-2.68,3.26-5.01,3.35c-0.97,0.04-1.95,0.04-2.92-0.23c-2.59-0.71-3.87-3.28-4.11-5.49c0-0.04,0.01-0.08,0.01-0.12
		c0.03-2.65,0.03-2.62,2.71-2.57c0.72,0.01,0.86,0.27,0.84,0.91c-0.03,0.83-0.03,1.69,0.28,2.46c0.34,0.84,0.75,1.68,1.87,1.7
		C220.72,93.53,221.22,93.53,221.72,93.35z"/>
	<path class="st2" d="M282.4,176.25c0-0.13,0-0.27,0-0.4c0.26-2.46,0.99-4.82,1.36-7.25c0.49-3.24,1.34-6.41,1.8-9.66
		c0.36-2.54,1.02-5.05,1.53-7.57c0.22-1.09,0.46-2.19,0.58-3.29c0.06-0.53,0.25-0.71,0.72-0.72c0.08,0,0.16,0,0.24,0
		c2.95-0.13,2.9-0.12,3.6,3.59c1.15,6.1,2.36,12.19,3.55,18.28c0.4,2.08,0.8,4.16,1.22,6.24c0.12,0.59,0.01,0.92-0.7,0.85
		c-0.51-0.05-1.05-0.08-1.56,0c-1.24,0.21-1.42-0.59-1.55-1.49c-0.25-1.77-0.49-3.54-0.75-5.31c-0.02-0.14-0.18-0.25-0.28-0.37
		c-1.66-0.21-3.32-0.2-4.98,0c-0.58,1.44-0.66,2.99-0.92,4.49c-0.47,2.67-0.38,2.69-3.05,2.67
		C282.95,176.3,282.67,176.27,282.4,176.25z"/>
	<path class="st2" d="M264.83,89.24c-0.68,1.89-0.81,3.89-1.11,5.85c-0.16,1.04-0.48,1.52-1.55,1.33c-0.19-0.04-0.4-0.01-0.6-0.01
		c-1.86,0-1.87,0-1.47-1.69c0.98-4.08,1.65-8.23,2.43-12.35c0.47-2.49,1.03-4.96,1.5-7.45c0.43-2.27,0.92-4.52,1.38-6.78
		c0.02-0.12-0.03-0.31,0.03-0.35c0.94-0.67,2.02-0.17,3.02-0.32c0.46-0.07,0.66,0.09,0.76,0.63c0.59,3.17,1.27,6.32,1.88,9.48
		c0.76,3.93,1.46,7.87,2.21,11.8c0.41,2.16,0.86,4.31,1.33,6.46c0.1,0.44-0.01,0.59-0.44,0.57c-0.08,0-0.16,0-0.24,0
		c-2.96,0.13-2.88,0.12-3.31-2.95c-0.2-1.4-0.3-2.85-0.81-4.2C268.17,89.04,266.5,89.08,264.83,89.24z"/>
	<path class="st2" d="M387.34,89.26c-0.66,1.62-0.73,3.37-1.02,5.06c-0.35,2.08-0.27,2.1-2.38,2.1c-1.53,0-1.5,0.01-1.22-1.49
		c0.81-4.35,1.55-8.71,2.4-13.05c0.83-4.27,1.75-8.52,2.63-12.78c0.11-0.54-0.23-1.41,0.5-1.54c1-0.18,2.07-0.1,3.1-0.02
		c0.29,0.02,0.4,0.51,0.47,0.87c1.5,7.71,3.01,15.42,4.51,23.13c0.25,1.27,0.48,2.54,0.74,3.81c0.16,0.8-0.04,1.23-0.95,1.09
		c-0.23-0.04-0.48-0.01-0.72-0.01c-1.96,0-1.91-0.01-2.13-1.89c-0.2-1.76-0.54-3.51-0.82-5.26
		C390.75,89.05,389.04,89.06,387.34,89.26z"/>
	<path class="st2" d="M356.32,216.12c-0.31-1.77-0.7-3.53-0.9-5.3c-0.2-1.83-0.12-1.84-1.9-1.84c-0.84,0-1.68,0.05-2.51-0.02
		c-0.76-0.06-1.24,0.08-1.33,0.95c-0.2,1.91-0.78,3.77-0.84,5.7c-0.1,0.41-0.23,0.73-0.77,0.69c-0.75-0.04-1.51-0.02-2.27-0.01
		c-0.64,0.01-0.75-0.31-0.58-0.83c0.64-3.32,1.28-6.64,1.93-9.96c0.5-2.61,1.01-5.22,1.51-7.83c0.64-3.32,1.27-6.63,1.91-9.95
		c0.06-0.27,0.23-0.45,0.49-0.43c1.1,0.06,2.22-0.2,3.31,0.13c0.52,2.81,1.04,5.63,1.57,8.44c0.83,4.39,1.67,8.78,2.52,13.17
		c0.46,2.38,0.96,4.76,1.43,7.14C358.71,216.35,357.51,216.42,356.32,216.12z"/>
	<path class="st2" d="M223.11,187.68c0.2,2.52,0.87,4.95,1.32,7.42c0.88,4.79,1.84,9.57,2.78,14.35c0.39,2,0.83,4,1.24,6
		c0.08,0.36,0.19,0.77-0.35,0.81c-0.91,0.06-1.82,0.02-2.74,0.01c-0.45,0-0.41-0.41-0.54-0.67c-0.3-1.95-0.61-3.9-0.91-5.85
		c-0.08-0.5-0.28-0.8-0.84-0.79c-1.35,0.02-2.7,0.02-4.05,0c-0.42-0.01-0.6,0.22-0.65,0.54c-0.36,2.2-0.69,4.41-1.03,6.61
		c-1.19,0.29-2.38,0.24-3.58,0.04c0.28-1.59,0.55-3.19,0.85-4.78c0.67-3.62,1.34-7.24,2.04-10.86c0.75-3.84,1.54-7.68,2.31-11.52
		c0.11-0.53,0.22-1.05,0.33-1.58c1.12-0.32,2.27-0.11,3.4-0.12C222.92,187.3,223.04,187.49,223.11,187.68z"/>
	<path class="st2" d="M324.41,135.75c-0.3-1.96-0.61-3.92-0.9-5.87c-0.07-0.49-0.27-0.8-0.83-0.8c-1.35,0.01-2.7,0.02-4.06,0
		c-0.42-0.01-0.6,0.22-0.65,0.54c-0.36,2.2-0.69,4.41-1.03,6.62c-1.19,0.29-2.38,0.24-3.58,0.04c0.34-2.05,0.65-4.1,1.04-6.14
		c0.51-2.68,1.1-5.34,1.64-8.01c0.42-2.11,0.81-4.23,1.22-6.34c0.54-2.75,1.09-5.49,1.63-8.24c1.13-0.32,2.28-0.12,3.42-0.11
		c0.22,0,0.33,0.2,0.38,0.41c0.26,2.91,1.04,5.72,1.56,8.58c1.04,5.72,2.17,11.42,3.28,17.12c0.13,0.69,0.34,1.36,0.51,2.04
		c0.17,0.52,0.07,0.85-0.57,0.83c-0.75-0.01-1.5-0.04-2.25,0.01C324.69,136.44,324.52,136.16,324.41,135.75z"/>
	<path class="st2" d="M273.51,107.51c0.59,3.13,1.16,6.25,1.76,9.38c1.09,5.71,2.19,11.41,3.29,17.12c0.13,0.69,0.34,1.36,0.51,2.04
		c0,0.18-0.09,0.34-0.26,0.33c-1.12-0.06-2.26,0.24-3.36-0.16c-0.31-1.97-0.62-3.94-0.94-5.91c-0.13-0.77-0.33-1.36-1.38-1.24
		c-1.14,0.12-2.31,0.02-3.46,0.04c-0.26,0.01-0.66-0.2-0.72,0.34c-0.26,2.18-0.89,4.31-0.98,6.51c-0.05,0.2-0.15,0.38-0.36,0.41
		c-0.97,0.09-1.94,0.05-2.92,0.03c-0.37-0.01-0.44-0.25-0.34-0.57c0.64-3.32,1.3-6.64,1.93-9.96c0.75-3.97,1.45-7.96,2.23-11.93
		c0.42-2.17,0.94-4.33,1.42-6.49C271.12,107.4,272.32,107.24,273.51,107.51z"/>
	<path class="st2" d="M356.55,79.38c0.39,0.02,0.79,0.03,1.18,0.05c0.62,0.28,1.3-0.01,1.93,0.17c4.05,0.8,5.31,2.12,6.05,6.31
		c0.12,1.28,0.11,2.55,0.01,3.83c-0.41,2.22-0.97,4.35-3.14,5.56c-1.37,0.77-2.87,1.07-4.42,1.11c-1.8,0.05-3.6,0.03-5.39,0.03
		c-0.28-0.26-0.16-0.6-0.16-0.9c-0.01-9.06-0.01-18.13,0-27.19c0-0.3-0.12-0.65,0.16-0.9c1.16,0,2.33,0,3.49,0
		c0.32,0.34,0.16,0.76,0.16,1.13c0.01,3.21,0,6.43,0.01,9.64C356.43,78.6,356.32,79.01,356.55,79.38z"/>
	<path class="st2" d="M247.66,147.33c1.92,0.01,3.83,0.02,5.75,0.02c5.32,0,6.65,2.32,7.13,6.77c0.2,1.85,0.03,3.7-0.82,5.44
		c-1.08,2.23-2.95,3.14-5.29,3.3c-0.99,0.07-1.99,0.06-2.98,0.09c-0.23,0.37-0.12,0.78-0.12,1.16c-0.01,3.69,0,7.39-0.01,11.08
		c0,0.38,0.16,0.8-0.16,1.14c-1.16,0-2.33,0-3.49,0c-0.28-0.26-0.16-0.6-0.16-0.9c-0.01-9.06-0.01-18.13,0-27.19
		C247.49,147.93,247.37,147.59,247.66,147.33z"/>
	<path class="st2" d="M285.03,67.62c4.44,0.96,5.01,5.67,4.69,9.26c-0.14,1.51-0.56,2.94-1.59,4.12c-1.22,1.4-2.82,1.89-4.61,1.98
		c-0.98,0.05-2.27-0.43-2.87,0.19c-0.59,0.62-0.16,1.9-0.17,2.89c-0.02,3.11-0.04,6.23,0.01,9.34c0.02,0.86-0.25,1.1-1.07,1.03
		c-0.83-0.07-1.67,0-2.51,0.01c-0.25-0.27-0.15-0.61-0.15-0.91c-0.01-9.06-0.01-18.12,0-27.18c0-0.31-0.1-0.64,0.15-0.91
		c2.3,0,4.59,0,6.89,0C284.19,67.69,284.64,67.44,285.03,67.62z"/>
	<path class="st2" d="M332.07,216.16c0-9.59,0-19.18,0-28.77c2.47-0.25,4.95-0.12,7.43-0.07c3.66,0.66,5.05,2.35,5.59,6.78
		c0.08,0.8,0.1,1.59-0.01,2.39c-0.43,2.84-1.43,5.23-4.54,6.1c-0.35,0.1-0.71,0.04-1.03,0.19c-1.19,0.23-2.41-0.12-3.59,0.2l0,0
		c-0.24,0.41-0.12,0.86-0.12,1.29c-0.01,3.67-0.03,7.35,0.01,11.02c0.01,0.78-0.2,1.09-1,1.01
		C333.89,216.2,332.97,216.43,332.07,216.16z"/>
	<path class="st2" d="M238.81,162.91c-0.2,3.44-0.2,6.88,0,10.31c1.53,0.28,3.07,0.09,4.61,0.12c1.92,0.04,1.93,0.01,1.9,1.98
		c-0.01,0.34,0.14,0.72-0.16,1.01c-3.07-0.01-6.15-0.04-9.22-0.01c-0.76,0.01-1.02-0.17-1.02-0.98c0.03-9.02,0.03-18.05,0-27.07
		c0-0.75,0.23-0.94,0.95-0.93c2.79,0.04,5.59,0.04,8.39,0c0.75-0.01,0.94,0.22,0.94,0.95c0,2.15,0.03,2.15-2.09,2.15
		c-1.24,0-2.48,0-3.71,0c-0.37,0-0.72-0.05-0.7,0.52c0.09,2.94-0.15,5.89,0.13,8.84c1.3,0.28,2.61,0.04,3.92,0.13
		c0.42,0.03,0.88-0.16,1.27,0.15c0,0.85,0,1.71,0,2.56c-1.21,0.34-2.44,0.06-3.66,0.16C239.82,162.83,239.3,162.66,238.81,162.91z"
		/>
	<path class="st5" d="M153.51,70.14c2.99-0.02,5.98-0.06,8.97-0.07c4.07,0,8.14,0.02,12.2,0.04c0.15,2.49,0.18,4.97-0.01,7.46
		c-0.48,0.38-1.06,0.33-1.61,0.33c-5.96,0.01-11.91,0.01-17.87,0c-0.55,0-1.13,0.06-1.62-0.3C153.3,75.11,153.4,72.62,153.51,70.14z
		"/>
	<path class="st5" d="M156.66,121.65c-1.53-0.34-2.78-1.03-3.3-2.64c0.13-0.99,0.09-1.99,0.04-2.98c-0.05-0.93,0.37-1.21,1.2-1.2
		c0.44,0.01,0.88,0,1.32,0c5.7,0,11.41,0,17.11,0c1.74,0,1.75,0.02,1.75,1.7c0,2.11,0.02,4.23-0.02,6.34c0,0.31,0.32,0.84-0.36,0.93
		c-1.14-1.28-2.67-1.69-4.27-1.93c-2.25-0.17-4.51-0.17-6.76,0c-0.48,0.02-0.95,0.03-1.43,0.05c-1.11,0.15-2.23,0.15-3.34,0
		c-0.24-0.02-0.47-0.03-0.71-0.05C157.5,121.62,157.03,121.91,156.66,121.65z"/>
	<path class="st2" d="M330.59,83.5c0,3.96-0.03,7.92,0.02,11.87c0.01,0.85-0.23,1.07-1.07,1.06c-2.71-0.02-2.71,0.01-2.71-2.64
		c0-7.32-0.03-14.63,0.03-21.95c0.01-1.14-0.34-1.42-1.38-1.32c-0.91,0.08-1.84,0-2.76,0.03c-0.5,0.02-0.67-0.13-0.7-0.67
		c-0.15-2.42-0.18-2.42,2.21-2.42c3.24,0,6.48,0.04,9.72-0.02c0.94-0.02,1.33,0.14,1.28,1.2c-0.09,1.89-0.02,1.9-1.98,1.9
		c-2.65,0-2.65,0-2.65,2.64C330.59,76.62,330.59,80.06,330.59,83.5z"/>
	<path class="st2" d="M326.16,190.5c-0.03,0.43-0.09,0.87-0.09,1.3c-0.01,8.12-0.01,16.24-0.01,24.36
		c-1.02,0.26-2.06,0.06-3.09,0.13c-0.46,0.03-0.65-0.19-0.63-0.64c0.01-0.28,0-0.56,0-0.84c0-7.66,0-15.32-0.01-22.99
		c0-0.43,0.14-0.88-0.13-1.28l-0.03-0.03c-1.26-0.31-2.53-0.1-3.8-0.13c-0.6-0.01-0.82-0.16-0.85-0.81
		c-0.08-2.32-0.11-2.32,2.21-2.32c3.32,0,6.64,0.03,9.95-0.02c0.85-0.01,1.08,0.25,1.07,1.08c-0.03,2.05,0.01,2.03-1.99,2.06
		C327.9,190.4,327.02,190.24,326.16,190.5z"/>
	<path class="st2" d="M274.94,187.44c0,9.56,0,19.12,0,28.68c-1.04,0.36-2.12,0.08-3.18,0.16c-0.34,0.02-0.52-0.15-0.52-0.5
		c0-0.24,0-0.48,0-0.72c0-8.86,0.02-17.72-0.02-26.57c0-1.01,0.28-1.37,1.26-1.23C273.3,187.37,274.14,187.09,274.94,187.44z"/>
	<path class="st2" d="M296.32,216.16c0-9.59,0-19.18,0-28.77c1.02-0.26,2.06-0.06,3.08-0.13c0.46-0.03,0.66,0.18,0.63,0.64
		c-0.01,0.2,0,0.4,0,0.6c0,8.85-0.02,17.7,0.02,26.56c0,0.99-0.26,1.37-1.25,1.24C297.98,216.19,297.13,216.43,296.32,216.16z"/>
	<path class="st2" d="M385.34,187.39c0,9.59,0,19.18,0,28.77c-1.02,0.26-2.06,0.06-3.08,0.13c-0.46,0.03-0.66-0.18-0.63-0.64
		c0.01-0.2,0-0.4,0-0.6c0-8.85,0.02-17.7-0.02-26.56c0-0.99,0.26-1.37,1.25-1.24C383.68,187.37,384.52,187.12,385.34,187.39z"/>
	<path class="st6" d="M202.98,67.19c-0.02,0.32-0.05,0.64-0.05,0.95c0,24.23,0,48.47,0,72.7c0,0.32,0.03,0.64,0.05,0.95
		c-0.02,0.32-0.04,0.64-0.04,0.95c0,24.23,0,48.47,0,72.7c0,0.32,0.03,0.64,0.04,0.95c-0.41-0.35-0.24-0.82-0.24-1.24
		c-0.01-48.92-0.01-97.83,0-146.75C202.74,68.01,202.57,67.53,202.98,67.19z"/>
	<path class="st7" d="M153.51,70.14c0.02,2.47,0.04,4.93,0.06,7.4c0.39,0.43,0.34,0.96,0.35,1.47c0.02,1.28,0,2.55,0.01,3.83
		c0.01,1.67,0.06,1.72,1.77,1.72c5.63,0.01,11.25,0,16.88,0.01c0.64,0,1.28-0.06,1.9,0.12c0.15,0.06,0.27,0.14,0.39,0.25
		c0,7.76,0,15.52,0,23.27c-0.16,0.06-0.27,0.02-0.36-0.13c-0.15-0.26-0.16-0.56-0.2-0.85c-0.04-2.4-0.04-4.8-0.01-7.19
		c-0.06-1.87,0-3.75-0.03-5.63c-0.02-1.28-0.12-1.41-1.35-1.41c-5.87-0.02-11.73-0.02-17.6,0c-1.26,0-1.37,0.14-1.4,1.37
		c-0.04,1.87,0.03,3.75-0.03,5.63c-0.05,2.4,0.21,4.81-0.15,7.21c-0.07,0.14-0.19,0.24-0.34,0.28c-0.02-4.96-0.05-9.91-0.06-14.87
		c-0.01-7.12-0.01-14.23,0-21.35C153.34,70.89,153.17,70.47,153.51,70.14z"/>
	<path class="st6" d="M206.38,141.8c0.02-0.4,0.06-0.79,0.06-1.19c0-24.08,0-48.16,0-72.24c0-0.4-0.05-0.79-0.08-1.19
		c0.3,0.29,0.21,0.67,0.21,1.02c0,24.36,0,48.71,0,73.07c0,0.2-0.02,0.4-0.03,0.6C206.48,141.86,206.43,141.83,206.38,141.8z"/>
	<path class="st6" d="M206.36,216.42c0.02-0.52,0.07-1.03,0.07-1.55c0-23.78,0-47.57,0.01-71.35c0-0.51-0.11-1.04,0.12-1.54
		c0.01,8.18,0.02,16.37,0.02,24.55c0,16.13,0,32.26-0.01,48.39C206.56,215.42,206.74,215.96,206.36,216.42z"/>
	<path class="st6" d="M307.53,119.73c-1.58,0.47-3.2,0.13-4.8,0.19c-1.81,0.07-1.82,0.02-1.82-1.82c0-3.24-0.02-6.47,0.02-9.71
		c0.01-0.7-0.13-0.95-0.9-0.95c-2.79-0.01-2.79-0.04-2.79,2.77c0,8.27,0.03,16.55-0.03,24.82c-0.01,1.15,0.35,1.36,1.39,1.33
		c2.32-0.07,2.32-0.02,2.32-2.4c0-3.32-0.01-6.63,0.01-9.95c0-0.36-0.23-0.79,0.19-1.08c0,4.15-0.02,8.31,0.02,12.46
		c0.01,0.87-0.21,1.18-1.13,1.18c-2.96-0.01-2.96,0.03-2.96-2.92c0-8.35,0.02-16.69-0.02-25.04c0-1.03,0.24-1.38,1.32-1.36
		c2.78,0.07,2.78,0.01,2.78,2.75c0,2.88,0.03,5.75-0.02,8.63c-0.02,0.91,0.28,1.17,1.16,1.14
		C304.01,119.68,305.77,119.73,307.53,119.73z"/>
	<path class="st6" d="M376.94,213.23c-0.44-0.34-0.19-0.81-0.19-1.2c-0.02-7.79-0.03-15.59,0.01-23.38c0-0.98-0.13-1.38-1.26-1.33
		c-2.43,0.1-2.44,0.03-2.44,2.41c0,7.43,0.01,14.87-0.01,22.3c0,0.39,0.25,0.87-0.19,1.21c0-8.26,0.02-16.52-0.02-24.78
		c-0.01-1.07,0.3-1.35,1.35-1.33c2.76,0.06,2.76,0.01,2.76,2.77C376.94,197.67,376.94,205.45,376.94,213.23z"/>
	<path class="st7" d="M174.69,108.21c0.06,0,0.11,0,0.17,0c0.01,4.83,0.02,9.66,0.05,14.49c0,0.45-0.19,0.97,0.26,1.35
		c-0.42,0.43-0.66,0.28-0.77-0.25c0.29-0.17,0.28-0.46,0.28-0.74c0-2.36-0.03-4.71,0.02-7.06c0.02-0.95-0.55-0.87-1.16-0.87
		c-5.87,0-11.74,0-17.61,0c-2.39,0-2.38,0-2.4,2.38c0,0.5,0.17,1.04-0.15,1.51c0.01-3.84,0.02-7.69,0.03-11.53
		c0.07-0.01,0.13-0.02,0.19-0.03c0.05,0.06,0.09,0.12,0.14,0.18c0.4,1.66,0.14,3.34,0.18,5.01c0.05,1.87,0.04,1.9,1.85,1.9
		c5.56,0,11.12,0,16.67,0c1.83,0,1.83-0.01,1.84-1.89c0-1-0.02-2,0.01-3C174.3,109.15,174.23,108.6,174.69,108.21z"/>
	<path class="st8" d="M195.05,118.98c0.01-16.3,0.01-32.59,0.02-48.89c0.4,0.3,0.21,0.74,0.21,1.11c0.01,15.56,0.01,31.12,0,46.68
		C195.28,118.25,195.46,118.68,195.05,118.98z"/>
	<path class="st6" d="M365.66,187.39c-1.19-0.06-2.7-0.51-3.48,0.15c-0.74,0.62-0.22,2.17-0.22,3.31
		c-0.02,8.03,0.01,16.07-0.04,24.1c-0.01,1.1,0.31,1.3,1.33,1.28c3.88-0.06,7.76-0.03,11.63-0.01c0.36,0,0.79-0.22,1.1,0.19
		c-4.32,0-8.63-0.03-12.95,0.02c-0.94,0.01-1.22-0.25-1.22-1.21c0.03-8.95,0.04-17.9,0-26.85c0-1.04,0.35-1.37,1.3-1.23
		C363.95,187.27,364.85,186.86,365.66,187.39z"/>
	<path class="st6" d="M274.94,187.44c-0.76-0.03-1.52-0.01-2.27-0.1c-1.04-0.13-1.4,0.17-1.39,1.32c0.06,6.67,0.03,13.35,0.03,20.02
		c0,2.16,0.06,4.32-0.03,6.47c-0.04,0.95,0.29,1.17,1.14,1.08c0.83-0.09,1.67-0.07,2.51-0.1c-1.12,0.63-2.32,0.27-3.48,0.21
		c-0.56-0.03-0.34-0.72-0.34-1.12c-0.01-5.67-0.01-11.35-0.01-17.02c0-3.32,0.02-6.63-0.02-9.95c-0.01-0.82,0.22-1.22,1.08-1.09
		C273.1,187.28,274.08,186.83,274.94,187.44z"/>
	<path class="st6" d="M296.32,216.16c0.96,0.02,1.92-0.01,2.87,0.06c0.68,0.05,0.77-0.25,0.77-0.83c-0.02-9.08-0.02-18.15,0-27.23
		c0-0.59-0.09-0.88-0.77-0.83c-0.95,0.07-1.92,0.05-2.87,0.06c1.1-0.52,2.26-0.16,3.39-0.22c0.35-0.02,0.43,0.29,0.44,0.6
		c0,0.32,0.01,0.64,0.01,0.96c0,8.66,0,17.32,0,25.99c0,1.91,0.17,1.72-1.76,1.69C297.7,216.39,296.96,216.67,296.32,216.16z"/>
	<path class="st6" d="M385.34,187.39c-0.96-0.02-1.92,0.01-2.87-0.06c-0.68-0.05-0.77,0.25-0.77,0.83c0.02,9.08,0.02,18.15,0,27.23
		c0,0.59,0.09,0.88,0.77,0.83c0.95-0.07,1.92-0.05,2.87-0.06c-1.1,0.52-2.26,0.16-3.39,0.22c-0.35,0.02-0.43-0.29-0.44-0.59
		c0-0.32-0.01-0.64-0.01-0.96c0-8.66,0-17.32,0-25.99c0-1.91-0.17-1.72,1.76-1.69C383.95,187.17,384.7,186.88,385.34,187.39z"/>
	<path class="st6" d="M307.6,136.27c1.19,0.06,2.69,0.5,3.47-0.14c0.75-0.62,0.22-2.17,0.23-3.3c0.02-8.09,0-16.18,0.03-24.28
		c0-0.88-0.19-1.22-1.11-1.12c-0.87,0.09-1.75,0.05-2.63,0.07c1.1-0.52,2.26-0.16,3.39-0.22c0.35-0.02,0.44,0.29,0.44,0.59
		c0,0.32,0.01,0.64,0.01,0.96c0,8.42,0,16.85,0,25.27c0,2.42,0,2.43-2.48,2.41C308.5,136.51,307.98,136.7,307.6,136.27z"/>
	<path class="st6" d="M322.21,190.55c0.29,0.4,0.13,0.85,0.13,1.27c0.01,7.77,0.02,15.53-0.01,23.3c0,0.89,0.2,1.21,1.11,1.11
		c0.87-0.09,1.75-0.05,2.62-0.06c-1.1,0.52-2.26,0.16-3.39,0.22c-0.35,0.02-0.44-0.29-0.44-0.59c0-0.32-0.01-0.64-0.01-0.96
		C322.22,206.74,322.22,198.64,322.21,190.55z"/>
	<path class="st6" d="M258.4,110.61c0.42,0.35,0.19,0.82,0.19,1.22c0.02,7.77,0.03,15.55-0.01,23.32c0,0.9,0.17,1.3,1.15,1.18
		c0.83-0.1,1.67-0.05,2.51-0.07c-1.1,0.52-2.26,0.16-3.39,0.22c-0.35,0.02-0.43-0.29-0.44-0.6c0-0.4-0.01-0.8-0.01-1.2
		C258.4,126.67,258.4,118.64,258.4,110.61z"/>
	<path class="st6" d="M247.66,147.33c-0.03,0.32-0.09,0.63-0.09,0.95c0,9.03,0,18.07,0,27.1c0,0.32,0.06,0.63,0.09,0.95
		c-0.48-0.31-0.28-0.79-0.29-1.2c-0.01-8.86-0.01-17.73,0-26.59C247.37,148.13,247.18,147.64,247.66,147.33z"/>
	<path class="st6" d="M299.25,147.33c-0.03,0.32-0.09,0.63-0.09,0.95c0,9.03,0,18.07,0,27.1c0,0.32,0.06,0.63,0.09,0.95
		c-0.48-0.31-0.28-0.79-0.29-1.2c-0.01-8.86-0.01-17.73,0-26.59C298.96,148.13,298.77,147.64,299.25,147.33z"/>
	<path class="st6" d="M245.72,67.44c-0.22,0.37-0.15,0.77-0.15,1.17c0,8.89,0,17.78,0,26.67c0,0.39-0.07,0.8,0.15,1.17
		c-0.45-0.32-0.27-0.8-0.27-1.22c-0.01-8.86-0.01-17.72,0-26.58C245.45,68.24,245.27,67.76,245.72,67.44z"/>
	<path class="st6" d="M352.76,67.44c-0.03,0.32-0.09,0.63-0.09,0.95c0,9.03,0,18.07,0,27.1c0,0.32,0.06,0.63,0.09,0.95
		c-0.48-0.31-0.28-0.79-0.29-1.2c-0.01-8.86-0.01-17.73,0-26.59C352.47,68.24,352.28,67.75,352.76,67.44z"/>
	<path class="st6" d="M306.1,96.44c0.03-0.32,0.09-0.63,0.09-0.95c0-9.03,0-18.07,0-27.1c0-0.32-0.06-0.63-0.09-0.95
		c0.48,0.31,0.28,0.79,0.29,1.2c0.01,8.86,0.01,17.73,0,26.59C306.39,95.65,306.58,96.13,306.1,96.44z"/>
	<path class="st6" d="M291.81,67.44c-0.03,0.32-0.09,0.63-0.09,0.95c0,9.03,0,18.07,0,27.1c0,0.32,0.06,0.63,0.09,0.95
		c-0.48-0.31-0.28-0.79-0.29-1.2c-0.01-8.86-0.01-17.73,0-26.59C291.52,68.24,291.33,67.75,291.81,67.44z"/>
	<path class="st6" d="M276.92,67.44c-0.22,0.37-0.15,0.77-0.15,1.17c0,8.89,0,17.78,0,26.67c0,0.39-0.07,0.8,0.15,1.17
		c-0.45-0.32-0.27-0.8-0.27-1.22c-0.01-8.86-0.01-17.72,0-26.58C276.65,68.24,276.46,67.76,276.92,67.44z"/>
	<path class="st6" d="M326.16,190.5c1.18-0.29,2.37-0.12,3.55-0.1c0.82,0.01,0.98-0.27,0.97-1.02c-0.02-2.04,0.01-2.04-2.07-2.04
		c-3.31,0-6.62,0.03-9.94-0.02c-0.84-0.01-1.18,0.13-1.15,1.08c0.07,1.97,0.01,1.95,1.95,1.98c0.9,0.02,1.82-0.17,2.71,0.13
		c-1.28-0.01-2.55-0.03-3.83-0.01c-0.63,0.01-0.91-0.16-0.95-0.86c-0.12-2.51-0.14-2.51,2.41-2.51c3.31,0,6.62,0.03,9.92-0.02
		c0.91-0.01,1.17,0.28,1.14,1.16c-0.09,2.63,0.31,2.17-2.21,2.22C327.84,190.52,327,190.5,326.16,190.5z"/>
	<path class="st6" d="M302.3,70.59c0.29,0.4,0.13,0.85,0.13,1.27c0.01,7.73,0.01,15.45,0.01,23.18c0,0.47-0.1,0.96,0.15,1.41
		c-0.48-0.36-0.27-0.89-0.27-1.33C302.3,86.94,302.3,78.76,302.3,70.59z"/>
	<path class="st6" d="M295.3,96.44c0.03-0.48,0.09-0.95,0.09-1.43c0.01-7.75,0-15.5,0.02-23.25c0-0.4-0.23-0.87,0.19-1.22
		c0,8.19,0,16.38-0.01,24.57C295.58,95.56,295.81,96.09,295.3,96.44z"/>
	<path class="st6" d="M235.89,110.61c0.85-0.46,1.76-0.15,2.64-0.19c1.35-0.06,2.71-0.04,4.07,0c0.62,0.02,0.8-0.17,0.82-0.8
		c0.05-2.17,0.08-2.19-2.07-2.16c-3.11,0.04-6.22-0.13-9.33,0.09c0.23-0.4,0.62-0.29,0.96-0.29c3.15-0.01,6.31,0.02,9.46-0.02
		c0.83-0.01,1.12,0.24,1.1,1.08c-0.08,2.76,0.32,2.25-2.26,2.29C239.48,110.63,237.68,110.61,235.89,110.61z"/>
	<path class="st6" d="M278.56,216.16c1.19,0.06,2.69,0.5,3.48-0.14c0.75-0.62,0.21-2.17,0.22-3.3c0.04-2.91,0.01-5.82,0.02-8.74
		c0-0.39-0.13-0.8,0.12-1.16c0,4.13-0.03,8.26,0.02,12.39c0.01,0.93-0.24,1.35-1.2,1.2C280.34,216.28,279.4,216.7,278.56,216.16z"/>
	<path class="st6" d="M332.07,216.16c1.19,0.06,2.68,0.5,3.47-0.14c0.76-0.61,0.22-2.16,0.23-3.29c0.04-2.86,0.01-5.73,0.02-8.59
		c0-0.39-0.12-0.8,0.12-1.16c0,4.11-0.02,8.22,0.01,12.33c0.01,0.8-0.19,1.22-1.06,1.1C333.94,216.29,332.96,216.67,332.07,216.16z"
		/>
	<path class="st9" d="M181.82,121.19c0.46-0.31,0.98-0.27,1.5-0.27c1.95,0,3.89-0.01,5.84,0.01c0.38,0,0.81-0.13,1.11,0.25
		c-0.13,0.15-0.37,0.05-0.48,0.23c-2.65-0.02-5.3-0.03-7.95-0.05C181.83,121.3,181.83,121.25,181.82,121.19z"/>
	<path class="st6" d="M282.4,199.62c-0.29-2.01-0.07-4.03-0.12-6.05c-0.04-1.79-0.04-3.58,0.01-5.37c0.02-0.68-0.19-0.91-0.87-0.86
		c-0.95,0.06-1.91,0.04-2.86,0.06c1.1-0.52,2.26-0.21,3.39-0.2c0.64,0,0.44,0.66,0.44,1.05C282.4,192.04,282.4,195.83,282.4,199.62z
		"/>
	<path class="st6" d="M339.98,89.99c-0.07-0.39-0.19-0.78-0.19-1.16c-0.01-4.6-0.01-9.19,0-13.79c0-0.39,0.12-0.78,0.18-1.17
		C339.98,79.25,339.98,84.62,339.98,89.99z"/>
	<path class="st6" d="M284.55,129.82c-0.33-5.3-0.31-10.6-0.01-15.9C284.54,119.22,284.55,124.52,284.55,129.82z"/>
	<path class="st7" d="M174.86,84.94c-0.09-0.01-0.17-0.02-0.26-0.02c-0.28-0.33-0.31-0.73-0.32-1.13c-0.02-1.67-0.02-3.35,0-5.02
		c0.01-0.44,0.01-0.88,0.37-1.22c0.01-2.48,0.02-4.96,0.03-7.45c0.06-0.03,0.13-0.04,0.19-0.01
		C174.87,75.04,174.86,79.99,174.86,84.94z"/>
	<path class="st6" d="M269.48,162.44c0.02-0.18,0.06-0.5,0.27-0.21c0.15,0.21,0.05,0.61,0.05,0.92c0,3.97,0,7.93,0,11.9
		c0,0.43-0.09,0.88,0.15,1.28c-0.45-0.32-0.27-0.8-0.27-1.21c-0.01-3.81,0-7.62-0.01-11.44
		C269.67,163.27,269.81,162.81,269.48,162.44z"/>
	<path class="st6" d="M336.09,74.63c0,4.87,0,9.75,0,14.62c-0.22-0.23-0.18-0.51-0.18-0.79c0-4.35,0-8.69,0-13.04
		C335.91,75.14,335.88,74.86,336.09,74.63z"/>
	<path class="st6" d="M269.96,147.33c-0.25,0.45-0.15,0.93-0.15,1.4c-0.01,3.89,0,7.79-0.02,11.68c0,0.16,0.23,0.51-0.2,0.51
		c-0.04,0-0.08-0.27-0.12-0.41c0.35-0.37,0.2-0.83,0.2-1.25c0.01-3.57,0-7.15,0.01-10.72C269.69,148.13,269.51,147.65,269.96,147.33
		z"/>
	<path class="st6" d="M280.67,114.7c-0.1,4.79-0.1,9.59-0.01,14.38c-0.25-0.27-0.18-0.6-0.18-0.91c0-4.19,0-8.38,0-12.56
		C280.48,115.29,280.41,114.96,280.67,114.7z"/>
	<path class="st6" d="M371.62,96.45c0.24-0.41,0.15-0.85,0.15-1.29c0.01-3.82,0-7.64,0.01-11.46c0-0.39-0.12-0.8,0.12-1.16
		c0,4.23,0,8.46-0.01,12.69C371.89,95.64,372.08,96.12,371.62,96.45z"/>
	<path class="st6" d="M325.81,162.96c0.3,0.56,0.13,1.16,0.13,1.74c0.02,3.45,0.01,6.91,0.01,10.36c0,0.43-0.09,0.88,0.15,1.28
		c-0.45-0.32-0.27-0.8-0.27-1.21C325.82,171.07,325.82,167.01,325.81,162.96z"/>
	<path class="st6" d="M319.07,176.34c0.24-0.41,0.15-0.85,0.15-1.28c0.01-3.65,0-7.3,0.01-10.96c0-0.38-0.15-0.79,0.13-1.14
		c-0.01,4.06-0.01,8.11-0.03,12.17C319.34,175.54,319.53,176.02,319.07,176.34z"/>
	<path class="st6" d="M251.15,176.33c0.21-4.06,0.03-8.11,0.11-12.17c0.01-0.4-0.24-0.86,0.19-1.2c0,4.06,0.01,8.12-0.01,12.18
		C251.43,175.54,251.63,176.02,251.15,176.33z"/>
	<path class="st6" d="M245.68,187.39c-3.45-0.02-6.9-0.02-10.34-0.06c-0.58-0.01-0.77,0.17-0.77,0.72c0,0.43-0.1,0.85-0.15,1.28
		c-0.01-2.63-0.25-2.16,2.11-2.18c2.64-0.03,5.28-0.01,7.92,0C244.86,187.15,245.33,186.98,245.68,187.39z"/>
	<path class="st6" d="M262.24,107.5c-3.61-0.02-7.22-0.02-10.83-0.06c-1.29-0.02-0.53,1.08-0.91,1.54c-0.04-1.73-0.04-1.73,1.7-1.73
		c2.94,0,5.88-0.01,8.81,0.01C261.43,107.26,261.9,107.09,262.24,107.5z"/>
	<path class="st6" d="M371.9,80.14c-0.28-2.29-0.04-4.59-0.13-6.88c-0.08-1.94,0.19-3.89-0.15-5.82c0.45,0.32,0.27,0.8,0.27,1.21
		C371.91,72.48,371.9,76.31,371.9,80.14z"/>
	<path class="st6" d="M326.11,147.33c-0.3,0.65-0.13,1.34-0.15,2.01c-0.1,3.46,0.16,6.92-0.13,10.38c0-3.73-0.01-7.45,0.01-11.18
		C325.84,148.12,325.66,147.65,326.11,147.33z"/>
	<path class="st6" d="M319.35,159.71c-0.28-2.5-0.03-5-0.13-7.5c-0.06-1.63,0.2-3.26-0.15-4.88c0.45,0.32,0.27,0.8,0.27,1.21
		C319.36,152.26,319.35,155.99,319.35,159.71z"/>
	<path class="st6" d="M356.55,79.38c-0.43-0.34-0.18-0.81-0.19-1.2c-0.08-3.58,0.1-7.16-0.11-10.73c0.48,0.31,0.28,0.79,0.29,1.2
		C356.55,72.22,356.55,75.8,356.55,79.38z"/>
	<path class="st6" d="M250.25,216.16c2.97,0.19,2.95,0.19,3-2.77c0.03-1.74-0.13-3.49,0.1-5.23c0.01,2.42,0,4.85,0.03,7.27
		c0.01,0.71-0.2,1.07-0.94,0.97C251.7,216.31,250.93,216.67,250.25,216.16z"/>
	<path class="st6" d="M232.69,181.62c0.34-2.6,0.07-5.21,0.14-7.81c0.01-0.47-0.35-0.42-0.67-0.45c-0.58-0.05-1.18,0.14-1.74-0.12
		c2.55,0,2.55,0,2.55,2.55c0,1.58,0.01,3.17-0.01,4.75C232.96,180.91,233.11,181.34,232.69,181.62z"/>
	<path class="st6" d="M245.15,176.33c0.37-2.98,0.37-2.96-2.56-2.99c-1.26-0.01-2.53,0.16-3.78-0.12c1.86,0,3.72,0.04,5.58-0.02
		c0.85-0.03,1.18,0.29,1.05,1.1C245.33,174.98,245.74,175.73,245.15,176.33z"/>
	<path class="st6" d="M248.11,221.46c0.15-2.72,0.15-5.44,0-8.17c0.4,0.49,0.2,1.06,0.21,1.6c0.03,1.82,0.02,3.63,0.01,5.45
		C248.32,220.71,248.44,221.13,248.11,221.46z"/>
	<path class="st6" d="M339.5,187.33c-2.48,0.02-4.95,0.04-7.43,0.07c0.23-0.31,0.57-0.26,0.88-0.25
		C335.13,187.26,337.33,186.91,339.5,187.33z"/>
	<path class="st6" d="M250.43,202.5c0.02,2.4,0.03,4.81-0.18,7.21c0-2.06-0.01-4.12,0-6.19C250.25,203.18,250.15,202.8,250.43,202.5
		z"/>
	<path class="st6" d="M250.68,188.35c0,2.4,0.02,4.81-0.19,7.21c0-2.02-0.01-4.05,0-6.07C250.49,189.1,250.37,188.69,250.68,188.35z
		"/>
	<path class="st6" d="M267.75,213.56c-0.19-2.32-0.22-4.65-0.17-6.98c0.4,1.84,0.08,3.7,0.17,5.55
		C267.78,212.61,267.75,213.09,267.75,213.56z"/>
	<path class="st6" d="M267.5,199.43c-0.17-2.33-0.22-4.66-0.16-7C267.74,194.76,267.43,197.1,267.5,199.43z"/>
	<path class="st6" d="M163.36,121.86c2.25-0.3,4.51-0.42,6.76,0C167.87,121.86,165.61,121.86,163.36,121.86z"/>
	<path class="st6" d="M295.6,70.55c2.22-0.2,4.45-0.23,6.67,0.02C300.05,70.56,297.82,70.55,295.6,70.55z"/>
	<path class="st6" d="M402.61,187.39c-2.16-0.02-4.31-0.04-6.47-0.07C398.3,187.07,400.46,186.94,402.61,187.39z"/>
	<path class="st6" d="M319.4,162.93c2.13-0.23,4.26-0.23,6.39,0C323.66,162.93,321.53,162.93,319.4,162.93z"/>
	<path class="st6" d="M288.83,199.62c-1.53,0.45-3.09,0.12-4.64,0.18c-0.59,0.02-1.24,0.22-1.8-0.18
		C284.54,199.62,286.69,199.62,288.83,199.62z"/>
	<path class="st6" d="M213.96,73.91c0.01,1.71,0.01,1.73,1.78,1.71c0.78-0.01,1.83,0.4,1.85-1.02c0.14,0.89-0.13,1.38-1.14,1.24
		c-0.39-0.06-0.8-0.01-1.2-0.01C213.62,75.82,213.48,75.61,213.96,73.91z"/>
	<path class="st6" d="M232.02,136.23c1.99,0.03,3.98,0.07,5.98,0.1C236,136.57,234.01,136.78,232.02,136.23z"/>
	<path class="st6" d="M264.65,213.28c0.04,0.15,0.11,0.3,0.11,0.44c0.12,2.76,0.11,2.76,2.98,2.4c-0.85,0.6-1.8,0.23-2.71,0.24
		c-0.42,0.01-0.39-0.42-0.39-0.73C264.64,214.85,264.64,214.06,264.65,213.28z"/>
	<path class="st6" d="M238.81,162.91c1.25-0.27,2.52-0.05,3.78-0.13c0.47-0.03,0.96,0.1,1.41-0.15c-0.69,0.56-1.5,0.21-2.25,0.26
		C240.77,162.96,239.79,162.91,238.81,162.91z"/>
	<path class="st6" d="M387.34,89.26c1.7-0.21,3.4-0.21,5.1,0C390.75,89.26,389.04,89.26,387.34,89.26z"/>
	<path class="st6" d="M243.99,160.07c-1.29-0.34-2.61-0.06-3.91-0.16c-0.43-0.03-0.87,0.14-1.28-0.12c1.37,0,2.74-0.01,4.11,0.01
		C243.29,159.8,243.72,159.66,243.99,160.07z"/>
	<path class="st6" d="M264.83,89.24c1.67-0.17,3.34-0.2,5.01,0.02C268.17,89.25,266.5,89.25,264.83,89.24z"/>
	<path class="st6" d="M313.06,89.24c1.67-0.17,3.34-0.2,5.01,0.02C316.4,89.25,314.73,89.25,313.06,89.24z"/>
	<path class="st6" d="M233.63,89.24c1.67-0.17,3.34-0.2,5.01,0.02C236.98,89.25,235.31,89.25,233.63,89.24z"/>
	<path class="st6" d="M336.58,169.13c1.67-0.17,3.34-0.2,5.02,0.02C339.92,169.15,338.25,169.14,336.58,169.13z"/>
	<path class="st6" d="M345.23,215.46c0.01,0.2-0.07,0.46,0.03,0.57c0.41,0.49,3.2,0.14,3.58-0.43c0.1,0.64-0.23,0.91-0.81,0.8
		c-0.99-0.18-2.1,0.49-2.97-0.42C344.94,215.86,345.07,215.61,345.23,215.46z"/>
	<path class="st6" d="M324.41,135.75c0.15,0.41,0.38,0.62,0.87,0.58c0.7-0.05,1.41-0.06,2.11,0c0.66,0.06,0.69-0.29,0.64-0.77
		c0.31,0.51,0.32,0.92-0.42,0.95c-0.86,0.03-1.73,0-2.59,0.01C324.46,136.53,324.37,136.2,324.41,135.75z"/>
	<path class="st6" d="M224.83,215.61c0.13,0.41,0.34,0.65,0.84,0.61c0.7-0.05,1.42-0.06,2.12,0c0.64,0.05,0.72-0.27,0.66-0.77
		c0.3,0.52,0.3,0.93-0.44,0.95c-0.87,0.02-1.74,0-2.6,0C224.84,216.41,224.8,216.04,224.83,215.61z"/>
	<path class="st6" d="M287.19,169.15c1.66-0.2,3.32-0.21,4.98,0C290.51,169.15,288.85,169.15,287.19,169.15z"/>
	<path class="st6" d="M264.35,135.81c0.02,0.12,0.03,0.33,0.06,0.33c1.2,0.17,2.41,0.53,3.56-0.19c0,0.32-0.11,0.55-0.46,0.56
		c-0.95,0.01-1.89,0.03-2.84,0C264.18,136.49,264.05,136.23,264.35,135.81z"/>
	<path class="st6" d="M313.13,193.33c0.32,1.44,0.09,2.91,0.23,4.37C312.83,196.27,313.23,194.79,313.13,193.33z"/>
	<path class="st6" d="M387.28,216.09c1.42,0.22,2.85,0.16,4.28,0.03C390.13,216.59,388.71,216.65,387.28,216.09z"/>
	<path class="st6" d="M254.03,110.59c1.46-0.16,2.91-0.21,4.37,0.02C256.94,110.61,255.49,110.6,254.03,110.59z"/>
	<path class="st6" d="M313.41,205.39c-0.25,1.45,0.08,2.94-0.27,4.39c-0.01-1.14-0.02-2.29-0.02-3.43
		C313.12,206.01,313.01,205.62,313.41,205.39z"/>
	<path class="st6" d="M264.22,198.67c0.08-0.29,0.15-0.59,0.23-0.88c0.04,0,0.08,0,0.13,0.01c0,1.09,0,2.17,0,3.26
		C264.11,200.31,264.69,199.41,264.22,198.67z"/>
	<path class="st6" d="M275.46,136.21c1.21,0.07,2.43,0.38,3.62-0.17c0.1,0.13,0.16,0.38,0,0.38
		C277.87,136.46,276.63,136.84,275.46,136.21z"/>
	<path class="st6" d="M223.11,187.68c-1.23-0.71-2.53-0.23-3.81-0.26c1.19-0.55,2.42-0.27,3.64-0.15
		C223.01,187.28,223.05,187.54,223.11,187.68z"/>
	<path class="st6" d="M316.76,209.45c-0.03-1.35-0.07-2.71-0.1-4.06C317.21,206.73,317.01,208.09,316.76,209.45z"/>
	<path class="st6" d="M322.68,107.83c-0.71-0.73-1.61-0.26-2.41-0.36c-0.45-0.05-0.93,0.04-1.39,0.07c1.16-0.56,2.38-0.23,3.57-0.2
		C322.65,107.34,322.68,107.62,322.68,107.83z"/>
	<path class="st6" d="M354.38,187.42c-1.05-0.02-2.09-0.04-3.14-0.07c-0.32-0.01-0.51,0.14-0.66,0.38c0.01-0.2,0.03-0.49,0.23-0.49
		C352,187.19,353.21,186.88,354.38,187.42z"/>
	<path class="st6" d="M365.71,89.73c0-1.28,0-2.55-0.01-3.83C366.02,87.18,366.01,88.46,365.71,89.73z"/>
	<path class="st6" d="M267.26,187.44c-1.19,0.01-2.42-0.49-3.56,0.28c0-0.2,0.03-0.49,0.23-0.49
		C265.05,187.21,266.19,186.83,267.26,187.44z"/>
	<path class="st6" d="M316.7,197.7c0.02-1.28,0.05-2.55,0.07-3.83C317.02,195.15,317.15,196.43,316.7,197.7z"/>
	<path class="st6" d="M292.7,187.44c-1.27-0.15-2.54-0.15-3.81,0C290.16,186.95,291.43,186.95,292.7,187.44z"/>
	<path class="st6" d="M288.89,216.12c1.27,0.15,2.54,0.15,3.81,0C291.43,216.6,290.16,216.6,288.89,216.12z"/>
	<path class="st6" d="M398.79,216.12c1.27,0.17,2.55,0.1,3.82,0.04C401.34,216.55,400.06,216.62,398.79,216.12z"/>
	<path class="st6" d="M346.22,77.77c1.2,0.12,2.4,0.21,3.59-0.06C348.63,78.22,347.43,78.06,346.22,77.77z"/>
	<path class="st6" d="M313.36,136.26c1.19,0.08,2.39,0.13,3.58-0.04C315.75,136.73,314.55,136.65,313.36,136.26z"/>
	<path class="st6" d="M273.51,107.51c-1.2-0.03-2.39-0.05-3.59-0.08C271.13,107.18,272.33,107.05,273.51,107.51z"/>
	<path class="st6" d="M335.91,202.98c1.18-0.45,2.4-0.09,3.59-0.2C338.33,203.21,337.11,202.87,335.91,202.98z"/>
	<path class="st6" d="M213.77,216.16c1.19,0.07,2.39,0.13,3.58-0.04C216.16,216.62,214.97,216.54,213.77,216.16z"/>
	<path class="st6" d="M356.32,216.12c1.19,0.17,2.39,0.1,3.58,0.04C358.7,216.53,357.51,216.63,356.32,216.12z"/>
	<path class="st6" d="M220.25,136.57c1.12,0,2.23,0,3.35,0C222.49,136.88,221.37,136.87,220.25,136.57z"/>
	<path class="st6" d="M254.08,187.39c-1.12,0-2.24,0-3.35,0C251.84,186.99,252.96,186.99,254.08,187.39z"/>
	<path class="st6" d="M158.59,121.91c1.11,0,2.23,0,3.34,0C160.81,122.25,159.7,122.25,158.59,121.91z"/>
	<path class="st6" d="M286.24,136.59c1.04-0.01,2.07-0.02,3.11-0.02C288.32,136.9,287.28,136.86,286.24,136.59z"/>
	<path class="st6" d="M245.02,129.32c0-1.04,0-2.07-0.01-3.11C245.32,127.25,245.32,128.28,245.02,129.32z"/>
	<path class="st6" d="M395.99,204.42c0.92-0.33,1.83-0.33,2.75,0C397.82,204.42,396.9,204.42,395.99,204.42z"/>
	<path class="st6" d="M308.8,216.48c0.96-0.01,1.91-0.01,2.87-0.02C310.71,216.78,309.76,216.75,308.8,216.48z"/>
	<path class="st6" d="M234.34,191.95c0.04,0.89,0.03,1.77-0.17,2.65C234.25,193.72,233.96,192.81,234.34,191.95z"/>
	<path class="st6" d="M219,151.88c0.02,0.91,0.01,1.82-0.17,2.72C218.88,153.69,218.6,152.77,219,151.88z"/>
	<path class="st6" d="M312.2,155.95c0-0.88,0-1.75,0-2.63C312.51,154.2,312.51,155.07,312.2,155.95z"/>
	<path class="st6" d="M311.42,187.08c-0.88,0-1.75,0.01-2.63,0.01C309.67,186.78,310.55,186.8,311.42,187.08z"/>
	<path class="st6" d="M345.08,196.5c0-0.8,0.01-1.59,0.01-2.39C345.37,194.91,345.39,195.7,345.08,196.5z"/>
	<path class="st6" d="M253.42,120.2c-0.04-0.81-0.03-1.62,0.18-2.41C253.53,118.59,253.79,119.42,253.42,120.2z"/>
	<path class="st6" d="M253.65,115.64c-0.02-0.82-0.02-1.64,0.18-2.45C253.77,114.01,254.04,114.85,253.65,115.64z"/>
	<path class="st6" d="M223.12,107.2c-0.79,0-1.59,0-2.38-0.01C221.53,106.91,222.33,106.9,223.12,107.2z"/>
	<path class="st6" d="M288.87,107.2c-0.8,0-1.59,0-2.39,0C287.28,106.9,288.07,106.9,288.87,107.2z"/>
	<path class="st6" d="M375.98,216.43c0.26,0.7,0.2,1.42,0.2,2.14C375.78,217.89,376.08,217.14,375.98,216.43z"/>
	<path class="st6" d="M250.43,111.1c0.04,0.73,0.01,1.46-0.18,2.17C250.32,112.54,250.05,111.79,250.43,111.1z"/>
	<path class="st6" d="M249.95,119.49c0.03,0.74,0.01,1.48-0.17,2.2C249.83,120.96,249.57,120.2,249.95,119.49z"/>
	<path class="st6" d="M245.46,136.23c0.7,0.34,1.43,0.07,2.14,0.11C246.87,136.57,246.14,136.75,245.46,136.23z"/>
	<path class="st6" d="M219.34,147.33c-0.1,0.72-0.19,1.44-0.29,2.16C219.17,148.78,218.76,147.99,219.34,147.33z"/>
	<path class="st6" d="M229.62,177.26c0.19,0.72,0.2,1.46,0.18,2.21C229.41,178.75,229.68,177.99,229.62,177.26z"/>
	<path class="st6" d="M216.46,180.9c-0.05-0.74,0-1.48,0.17-2.2C216.58,179.43,216.84,180.19,216.46,180.9z"/>
	<path class="st6" d="M257.93,216.24c0.71-0.03,1.43-0.06,2.14-0.09C259.38,216.61,258.66,216.48,257.93,216.24z"/>
	<path class="st6" d="M250.18,115.42c0.05,0.67,0.01,1.34-0.15,1.99C250.06,116.75,249.83,116.06,250.18,115.42z"/>
	<path class="st6" d="M189.79,121.41c0.16-0.08,0.32-0.15,0.48-0.23c0.31-0.2,0.63-0.25,0.93,0.01
		C190.78,121.59,190.26,121.33,189.79,121.41z"/>
	<path class="st6" d="M234.11,196.99c0.03,0.66,0.04,1.32-0.17,1.96C233.99,198.3,233.74,197.62,234.11,196.99z"/>
	<path class="st10" d="M181.82,121.19c0.01,0.06,0.01,0.11,0.01,0.17c-0.55,0.01-1.11,0.03-1.66,0.04
		C180.67,120.93,181.27,121.24,181.82,121.19z"/>
	<path class="st6" d="M253.18,124.52c-0.05-0.66,0.01-1.32,0.17-1.96C253.29,123.21,253.55,123.89,253.18,124.52z"/>
	<path class="st6" d="M312.94,168.9c0-0.64-0.01-1.27-0.01-1.91C313.23,167.63,313.21,168.27,312.94,168.9z"/>
	<path class="st6" d="M359.66,79.6c-0.65-0.03-1.3,0.03-1.93-0.17C358.37,79.49,359.04,79.24,359.66,79.6z"/>
	<path class="st6" d="M218.74,157.16c0.05,0.66,0.04,1.31-0.17,1.94C218.64,158.46,218.39,157.78,218.74,157.16z"/>
	<path class="st11" d="M194.1,120.19c0.2-0.39,0.51-0.67,0.88-0.9C194.95,119.85,194.68,120.17,194.1,120.19z"/>
	<path class="st6" d="M237.52,119.44c-0.54-0.1-1.13,0.25-1.63-0.2C236.43,119.32,237.01,119.07,237.52,119.44z"/>
	<path class="st6" d="M249.72,123.57c0.01,0.58,0.04,1.15-0.19,1.7C249.59,124.71,249.34,124.1,249.72,123.57z"/>
	<path class="st6" d="M349.64,90.45c0.06-0.57,0.12-1.15,0.17-1.72C349.76,89.3,350,89.91,349.64,90.45z"/>
	<path class="st6" d="M218.58,82.73c0.48,0.2,1.04-0.04,1.51,0.27C219.58,82.93,219.01,83.27,218.58,82.73z"/>
	<path class="st6" d="M218.52,160.52c0.02,0.5,0.02,1-0.19,1.46C218.39,161.49,218.16,160.97,218.52,160.52z"/>
	<path class="st6" d="M252.93,127.4c-0.01-0.49-0.02-0.99,0.19-1.45C253.06,126.43,253.29,126.96,252.93,127.4z"/>
	<path class="st6" d="M303.04,208.47c0.18,0.47,0.19,0.97,0.18,1.46C302.87,209.48,303.09,208.96,303.04,208.47z"/>
	<path class="st6" d="M349.8,74.71c-0.06-0.51-0.11-1.01-0.17-1.52C349.99,73.66,349.77,74.2,349.8,74.71z"/>
	<path class="st6" d="M294.39,114.48c-0.18-0.47-0.19-0.97-0.18-1.46C294.56,113.47,294.34,113.99,294.39,114.48z"/>
	<path class="st6" d="M303.22,193.63c0.01,0.5,0,0.99-0.18,1.46C303.09,194.6,302.87,194.08,303.22,193.63z"/>
	<path class="st6" d="M343.92,93.36c-0.53,0.26-1.05,0.26-1.58-0.01C342.86,93.36,343.39,93.36,343.92,93.36z"/>
	<path class="st6" d="M221.72,93.35c-0.5,0.28-1,0.28-1.5,0C220.72,93.35,221.22,93.35,221.72,93.35z"/>
	<path class="st6" d="M294.21,130.52c0.06-0.51,0.11-1.01,0.17-1.52C294.34,129.51,294.56,130.05,294.21,130.52z"/>
	<path class="st6" d="M233.86,200.59c0.05,0.43,0.02,0.84-0.16,1.24C233.72,201.41,233.56,200.97,233.86,200.59z"/>
	<path class="st6" d="M388.95,196.47c0.19,0.39,0.2,0.81,0.18,1.22C388.8,197.33,388.98,196.88,388.95,196.47z"/>
	<path class="st6" d="M220.22,70.53c0.42-0.18,0.83-0.19,1.25,0C221.05,70.54,220.63,70.54,220.22,70.53z"/>
	<path class="st6" d="M156.66,121.65c0.42-0.02,0.85-0.06,1.22,0.21C157.46,121.84,157.01,122.04,156.66,121.65z"/>
	<path class="st12" d="M175.62,123.35c0.02-0.48,0.27-0.74,0.76-0.74C176.2,122.94,175.93,123.17,175.62,123.35z"/>
	<path class="st6" d="M346,72.91c0.27,0.38,0.19,0.8,0.17,1.22C345.86,73.76,346.03,73.32,346,72.91z"/>
	<path class="st6" d="M346.16,89.51c0.04,0.43,0.05,0.85-0.16,1.24C346.03,90.33,345.86,89.89,346.16,89.51z"/>
	<path class="st6" d="M290.56,112.75c0.26,0.37,0.2,0.8,0.18,1.21C290.42,113.6,290.6,113.16,290.56,112.75z"/>
	<path class="st6" d="M290.74,129.57c0.03,0.42,0.05,0.84-0.17,1.22C290.6,130.38,290.42,129.94,290.74,129.57z"/>
	<path class="st6" d="M250.45,80.14c-0.37,0.31-0.74,0.33-1.11,0C249.71,80.14,250.08,80.14,250.45,80.14z"/>
	<path class="st6" d="M285.03,67.62c-0.41-0.06-0.82-0.12-1.22-0.18C284.22,67.47,284.66,67.29,285.03,67.62z"/>
	<path class="st6" d="M373.05,80.14c-0.38,0.32-0.76,0.32-1.14,0C372.29,80.14,372.67,80.14,373.05,80.14z"/>
	<path class="st6" d="M249.35,82.54c0.38-0.33,0.76-0.31,1.13,0C250.1,82.54,249.72,82.54,249.35,82.54z"/>
	<path class="st6" d="M214.64,173.23c-0.37,0.07-0.74,0.14-1.12,0.22C213.84,173.09,214.26,173.28,214.64,173.23z"/>
	<path class="st6" d="M218.28,162.92c0.03,0.42,0.02,0.83-0.19,1.21C218.13,163.72,217.95,163.28,218.28,162.92z"/>
	<path class="st6" d="M371.91,82.54c0.38-0.31,0.77-0.33,1.15,0C372.67,82.54,372.29,82.54,371.91,82.54z"/>
	<path class="st13" d="M183.53,78.23c-1.11-0.31-2.13-1.6-2.17-2.69c-0.02-0.58,0.22-0.81,0.78-0.74c1.52,0.18,3.02,0.26,4.35-0.76
		c0.19-0.14,0.56-0.15,0.81-0.08c1.34,0.36,2.6,0.19,3.72-0.58c0.36,0.43,0.09,0.87,0.24,1.24c0.5,0.15,0.61-0.44,1.1-0.56
		c-0.01,1.16,0.93,2.29-0.1,3.43c-0.07,0.08-0.11,0.25-0.08,0.34c0.6,1.56,0.23,3.14,0.18,4.72c-0.01,0.18,0.08,0.41,0.2,0.55
		c1.76,1.91,1.36,4.24,1.22,6.49c-0.06,1-0.07,1.99,0.06,2.98c0.23,1.71,0.27,3.42-0.04,5.13c-0.14,0.79,0.01,1.57,0.23,2.36
		c0.43,1.59,0.92,3.07-0.23,4.76c-0.51,0.74-0.76,2.23-0.31,3.44c0.23,0.64,0.32,1.3,0.16,2c-0.25,1.07,0.3,2.02,0.57,3.01
		c0.17,0.63,0.28,1.26,0.09,1.89c-0.29,0.96-0.78,1.62-1.96,1.51c-0.85-0.08-1.74,0.16-2.55,0.18c-0.97,0.03-1.94-0.05-2.9,0.22
		c-0.1,0.03-0.25,0.02-0.33-0.04c-0.37-0.27,0.65-1.1-0.63-1.2c-0.61-0.05,0.39-0.78,0.42-1.35c-0.64-0.02-1.01-0.18-0.36-0.83
		c0.21-0.21,0.95-0.49,0.14-0.94c-0.18-0.1,0-0.27,0.1-0.38c0.86-0.93,1.99-0.95,3.08-0.05c0.13,0.09,0.25,0.18,0.34,0.31
		c0.06,0.1,0.12,0.19,0.12,0.19c-0.07-0.17-0.14-0.47-0.22-0.77c-0.2-0.61-0.76-0.91-1.17-1.33c-0.25-0.26-0.51-0.5-0.77-0.75
		c-0.32-0.3-0.14-1.09-0.62-1.05c-0.6,0.06-1.21,0.37-1.7,0.81c-0.49,0.44-0.79,0.98-0.91,1.64c-0.15,0.8-0.04,1.59,0.09,2.38
		c0.42,2.66,0.02,3.07-2.61,3.14c-1.05,0.03-2.03,0.4-3.04-0.35c-0.47-0.35-0.8,0.69-1.44,0.59c-0.49-0.07-1-0.05-1.54,0.41
		c0-0.41-0.06-0.66,0.01-0.87c0.28-0.86-0.64-1.85,0.31-2.62c-0.97-0.68-0.33-0.97,0.28-1.39c0.28-0.19-0.75-0.24-0.28-0.85
		c0.97-1.24,2.58-1.24,3.38,0.12c0.15,0.26,0.26,0.54,0.59,0.78c0.09-0.81,0.22-1.61,0.26-2.42c0.09-2.18,0.78-4.13,2.07-5.89
		c0.21-0.29,0.61-0.54,0.37-1.04c-1.02-2.09-0.96-4.23-0.28-6.4c-0.11-0.34,0.17-0.6,0.21-0.9c0.17-0.17,0.14-0.4,0.19-0.63
		c-0.08,0.18,0,0.38-0.13,0.53c-0.2,0.31-0.23,0.72-0.5,1c-0.62,0.58-1.11,1.53-2.22,0.76c-0.06-0.04-0.36,0.25-0.69,0.48
		c0.39-1.14-1.36-1.31-0.83-2.5c0.45-1,1.24-1.48,2.32-1.78c-1.03-0.35-3.08,0.07-3.69,0.71c-0.43,0.02-0.32-0.61-0.94-0.67
		c-0.79-0.09-0.62-1.24-0.59-1.94c0.1-1.95,0.98-2.81,3.28-2.89c3.22-0.11,4.81-2.08,5.82-4.76c0.68-1.8-0.25-3.28-2.02-3.91
		c-1.01-0.36-1.98-0.97-2.75-1.79c-0.19-0.2-0.36-0.51-0.11-0.75c0.36-0.36,0.43,0.11,0.58,0.28c0.92,1.03,2,0.41,3.03,0.28
		c0.36-0.21,0.74-0.06,1.1-0.06C184.29,78.24,183.88,78.47,183.53,78.23z"/>
	<path class="st14" d="M183.53,78.23c0.69,0,1.54-0.48,1.99,0.68c-0.74-0.17-1.36-0.32-1.99-0.46
		C183.53,78.37,183.53,78.3,183.53,78.23z"/>
	<path class="st15" d="M189.56,112.02c0.32,0.48,0.65,0.95,0.68,1.71c-0.61-0.41-0.72-0.95-0.92-1.44
		C189.4,112.19,189.48,112.1,189.56,112.02z"/>
	<path class="st16" d="M182.34,96.94c0.08-0.36,0.09-0.75,0.49-0.96l-0.01-0.01c0.09,0.37-0.01,0.69-0.25,0.97
		c0,0-0.11-0.01-0.11-0.01L182.34,96.94z"/>
	<path class="st6" d="M218.21,173.35c2.68-2.65,3.06-5.89,3.45-9.1c0.51-4.16,0.55-8.35,0.68-12.53c0.03-0.95,0.17-1.47,1.3-1.31
		c0.94,0.14,2.19-0.28,2.77,0.2c0.61,0.51,0.18,1.8,0.19,2.75c0.02,6.27-0.01,12.54,0.03,18.8c0.01,0.92-0.21,1.24-1.18,1.2
		C223.15,173.3,220.84,173.35,218.21,173.35z"/>
	<path class="st0" d="M233.55,213.3c2.72-2.66,3.07-5.96,3.47-9.2c0.51-4.16,0.54-8.36,0.68-12.55c0.03-0.88,0.22-1.21,1.2-1.19
		c3.06,0.06,3.06,0.01,3.06,3.02c0,6.28-0.02,12.55,0.02,18.83c0.01,0.89-0.21,1.15-1.12,1.12
		C238.52,213.25,236.17,213.3,233.55,213.3z"/>
	<path class="st0" d="M302.83,167.91c0-1.52,0.03-3.03-0.01-4.55c-0.02-0.62,0.18-0.9,0.81-0.81c0.04,0.01,0.08,0,0.12,0
		c4.21-0.13,5.72,1.37,5.65,5.6c0,0.08,0,0.16,0,0.24c-0.23,4.78-1.7,5.04-5.96,4.97c-0.6-0.01-0.6-0.35-0.6-0.78
		C302.84,171.02,302.83,169.47,302.83,167.91z"/>
	<path class="st0" d="M302.83,154.92c0-1.16,0.06-2.32-0.02-3.47c-0.06-0.88,0.28-1.14,1.08-1.01c0.2,0.03,0.4,0,0.6,0.01
		c1.55,0.05,3.34-0.12,4.03,1.64c0.82,2.06,0.81,4.25-0.44,6.2c-0.73,1.13-2.05,1.11-3.24,1.15c-2,0.07-2,0.06-2-1.88
		C302.83,156.67,302.83,155.79,302.83,154.92z"/>
	<path class="st0" d="M398.82,195.82c0,1.55-0.02,3.11,0.01,4.66c0.01,0.59-0.11,0.81-0.77,0.83c-3.63,0.12-5.42-1.54-5.52-5.17
		c-0.01-0.4-0.01-0.8,0-1.2c0.03-3.38,2.52-5.36,5.85-4.71c0.59,0.12,0.42,0.48,0.42,0.79
		C398.83,192.63,398.82,194.23,398.82,195.82z"/>
	<path class="st0" d="M225.33,121.89c0,2.32,0,4.64,0,6.96c0,0.68-0.02,1.35-0.19,2.02c-0.49,1.87-1.37,2.58-3.21,2.58
		c-1.84,0-2.7-0.72-3.21-2.58c-0.24-0.9-0.25-1.83-0.25-2.73c0-4.72-0.15-9.43,0.08-14.15c0.14-2.72,1.56-3.95,4.09-3.59
		c1.63,0.23,2.57,1.35,2.64,3.46c0.08,2.68,0.02,5.36,0.02,8.03C225.3,121.89,225.32,121.89,225.33,121.89z"/>
	<path class="st0" d="M235.81,127.94c0-1.6,0.02-3.19-0.01-4.79c-0.01-0.56,0.16-0.73,0.74-0.76c3.49-0.17,5.15,1.67,5.02,5.65
		c-0.01,0.44-0.08,0.87-0.11,1.31c-0.24,3.6-2.27,4.12-5.1,4.06c-0.67-0.01-0.54-0.43-0.54-0.8
		C235.8,131.05,235.8,129.5,235.81,127.94z"/>
	<path class="st6" d="M339.24,154.29c0.61,3.61,1.19,7.22,1.86,10.82c0.16,0.87-0.1,1.03-0.87,0.97c-0.71-0.05-1.44-0.09-2.15,0.01
		c-1.06,0.14-1.13-0.34-0.97-1.2c0.6-3.37,1.15-6.75,1.72-10.12C339,154.63,338.77,154.16,339.24,154.29z"/>
	<path class="st17" d="M339.24,154.29c-0.14,0.16-0.27,0.32-0.41,0.48c-0.08-0.41,0.1-0.74,0.26-1.11
		C339.34,153.86,339.28,154.08,339.24,154.29z"/>
	<path class="st6" d="M236.3,74.4c0.61,3.61,1.19,7.23,1.84,10.83c0.13,0.72,0.08,1.03-0.74,0.96c-0.83-0.07-1.68-0.07-2.51,0
		c-0.83,0.07-0.87-0.26-0.75-0.95c0.61-3.45,1.16-6.91,1.74-10.37C236.06,74.75,235.83,74.26,236.3,74.4z"/>
	<path class="st18" d="M236.3,74.4c-0.14,0.16-0.28,0.32-0.42,0.47c-0.08-0.41,0.04-0.77,0.3-1.1
		C236.4,73.96,236.33,74.18,236.3,74.4z"/>
	<path class="st6" d="M315.68,73.95c0.64,3.76,1.28,7.53,1.94,11.29c0.12,0.69,0.04,1.08-0.78,0.95c-0.19-0.03-0.4,0.01-0.6-0.01
		c-0.9-0.07-2.13,0.4-2.61-0.21c-0.37-0.47,0.13-1.66,0.27-2.52c0.53-3.17,1.08-6.34,1.63-9.52
		C315.58,73.94,315.63,73.94,315.68,73.95z"/>
	<path class="st6" d="M289.81,153.76c0.57,3.34,1.16,6.67,1.7,10.01c0.37,2.3,0.34,2.3-2.01,2.3c-1.85,0-1.88,0-1.58-1.85
		c0.56-3.49,1.16-6.97,1.74-10.45C289.71,153.76,289.76,153.76,289.81,153.76z"/>
	<path class="st6" d="M267.45,73.95c0.63,3.74,1.26,7.47,1.92,11.21c0.13,0.71,0.13,1.14-0.8,1.04c-1.06-0.11-2.54,0.44-3.1-0.21
		c-0.56-0.64,0.16-2.02,0.33-3.07c0.48-2.99,0.98-5.97,1.48-8.96C267.32,73.96,267.38,73.95,267.45,73.95z"/>
	<path class="st6" d="M390.11,74.66c0.62,3.8,1.25,7.6,1.89,11.52c-1.28,0-2.5-0.01-3.73,0c-0.73,0.01-0.46-0.44-0.4-0.8
		c0.58-3.45,1.16-6.9,1.74-10.36c0.05-0.27,0.06-0.55,0.09-0.83C390.18,74.03,389.92,74.54,390.11,74.66z"/>
	<path class="st19" d="M390.11,74.66c-0.14-0.15-0.28-0.31-0.42-0.46c0.01-0.18,0.03-0.36,0.04-0.54
		C390.15,73.88,390.21,74.24,390.11,74.66z"/>
	<path class="st6" d="M352.64,193.92c0.68,3.95,1.31,7.67,1.96,11.39c0.1,0.58-0.07,0.79-0.67,0.76c-0.92-0.04-1.84-0.05-2.75,0
		c-0.72,0.05-0.77-0.25-0.66-0.85c0.62-3.61,1.21-7.22,1.82-10.83C352.36,194.29,352.46,194.21,352.64,193.92z"/>
	<path class="st6" d="M221.28,194c0.45,2.62,0.91,5.24,1.35,7.87c0.19,1.14,0.33,2.29,0.57,3.42c0.13,0.59,0.04,0.8-0.59,0.78
		c-1.12-0.04-2.58,0.4-3.26-0.15c-0.74-0.61,0.05-2.04,0.21-3.1c0.44-2.96,0.98-5.9,1.49-8.85
		C221.13,193.98,221.2,193.99,221.28,194z"/>
	<path class="st6" d="M320.67,113.87c0.51,1.19,0.52,2.27,0.7,3.3c0.49,2.75,0.91,5.51,1.41,8.26c0.11,0.6-0.02,0.77-0.62,0.75
		c-0.96-0.04-1.92-0.03-2.88,0c-0.54,0.02-0.69-0.14-0.6-0.69C319.35,121.69,319.99,117.88,320.67,113.87z"/>
	<path class="st6" d="M271.78,113.85c0.66,3.84,1.31,7.68,1.97,11.51c0.08,0.49,0.08,0.85-0.61,0.81c-0.95-0.05-1.91-0.04-2.87,0
		c-0.57,0.02-0.68-0.21-0.6-0.71c0.65-3.88,1.3-7.75,1.95-11.63C271.67,113.84,271.72,113.85,271.78,113.85z"/>
	<path class="st0" d="M356.34,87.89c0-1.51,0.04-3.03-0.02-4.54c-0.02-0.7,0.23-0.85,0.88-0.86c3.47-0.07,4.91,1.24,5.05,4.71
		c0.04,1.04,0,2.07-0.18,3.1c-0.42,2.38-3.13,3.96-5.39,3.16c-0.45-0.16-0.34-0.48-0.34-0.77
		C356.34,91.08,356.34,89.49,356.34,87.89z"/>
	<path class="st0" d="M257.09,154.55c0,0.35,0.01,0.63,0,0.9c-0.16,3.59-0.78,4.58-5.24,4.47c-0.46-0.01-0.62-0.19-0.61-0.65
		c0.02-2.75,0.02-5.5,0-8.26c0-0.51,0.16-0.74,0.68-0.7c0.95,0.06,1.92,0.02,2.86,0.16c1.12,0.17,1.89,0.83,2.08,2.01
		C256.97,153.18,257.02,153.9,257.09,154.55z"/>
	<path class="st0" d="M280.48,75.1c0-1.32,0.03-2.64-0.01-3.95c-0.02-0.59,0.18-0.78,0.75-0.74c0.87,0.07,1.76,0.04,2.62,0.15
		c1.16,0.16,1.99,0.75,2.22,2c0.3,1.62,0.35,3.26,0.05,4.87c-0.31,1.66-1.04,2.26-2.74,2.49c-2.89,0.38-2.89,0.38-2.89-2.43
		C280.48,76.7,280.48,75.9,280.48,75.1z"/>
	<path class="st6" d="M335.78,195.08c0-1.35,0.02-2.71-0.01-4.06c-0.01-0.54,0.12-0.85,0.72-0.76c0.08,0.01,0.16,0,0.24,0
		c4.1-0.07,4.82,0.63,4.82,4.72c0,0.16,0,0.32,0,0.48c-0.02,3.69-1.15,4.53-5.26,4.41c-0.57-0.02-0.5-0.37-0.5-0.73
		C335.78,197.78,335.78,196.43,335.78,195.08z"/>
	<path class="st20" d="M174.65,77.55c-0.02,2.46-0.03,4.91-0.05,7.37c-6.63,0-13.26-0.02-19.88,0.02c-0.92,0.01-1.25-0.21-1.21-1.18
		c0.08-2.07,0.04-4.15,0.06-6.23C160.59,77.54,167.62,77.54,174.65,77.55z"/>
	<path class="st5" d="M153.59,107.45c-0.01-2.48-0.02-4.96-0.03-7.44c0.47-0.4,1.05-0.35,1.6-0.35c5.96-0.01,11.92-0.01,17.87,0
		c0.56,0,1.13-0.05,1.61,0.33c0,2.51,0,5.01,0,7.52c-0.47,0.4-1.04,0.36-1.59,0.36c-5.97,0.01-11.95,0.01-17.92,0
		c-0.55,0-1.13,0.04-1.59-0.38C153.55,107.5,153.59,107.45,153.59,107.45z"/>
	<path class="st20" d="M174.65,100c-7.03,0.01-14.06,0.01-21.09,0.02c-0.01-2.16,0.01-4.32-0.05-6.47
		c-0.02-0.77,0.27-0.93,0.98-0.93c6.39,0.02,12.79,0.03,19.18,0c0.81,0,1.01,0.27,0.99,1.03C174.62,95.76,174.65,97.88,174.65,100z"
		/>
	<path class="st20" d="M153.55,107.5c7.03,0,14.07,0.01,21.1,0.01c0.01,0.23,0.03,0.46,0.04,0.7c-0.01,1.91-0.05,3.83-0.02,5.74
		c0.01,0.71-0.18,0.96-0.93,0.96c-6.43-0.03-12.85-0.03-19.28,0c-0.74,0-0.96-0.23-0.94-0.95
		C153.56,111.81,153.55,109.66,153.55,107.5z"/>
	<path class="st5" d="M164.05,92.4c-3.15,0-6.31-0.03-9.46,0.02c-0.85,0.01-1.1-0.25-1.08-1.09c0.06-1.71,0.05-3.43,0-5.15
		c-0.02-0.75,0.18-1.05,1-1.05c6.39,0.03,12.78,0.03,19.16,0c0.79,0,1.04,0.25,1.02,1.03c-0.05,1.68-0.06,3.35,0,5.03
		c0.03,0.91-0.2,1.25-1.18,1.23C170.36,92.36,167.2,92.4,164.05,92.4z"/>
	<path class="st21" d="M191.68,89.15c0.11,1.16-0.68,2.28,0.37,3.4C190.74,91.93,190.68,91.01,191.68,89.15z"/>
	<path class="st22" d="M192.7,88.8c0,0.89,0,1.78,0,2.67c-0.38-0.89-0.93-1.77-0.19-2.69C192.58,88.72,192.64,88.72,192.7,88.8z"/>
	<path class="st23" d="M186.07,101.31c-0.07,0.94-0.68,1.43-1.67,2.02C184.83,102.24,185.56,101.87,186.07,101.31z"/>
	<path class="st24" d="M190.11,77.17c0.59,0.93,0.29,1.51-0.65,2.2C189.71,78.51,189.89,77.9,190.11,77.17z"/>
	<path class="st25" d="M191,76.17c0.04,0.49-0.04,0.71-0.35,0.65c-0.21-0.04-0.52,0.05-0.58-0.23c-0.07-0.34,0.24-0.45,0.49-0.53
		C190.83,75.98,191,76.11,191,76.17z"/>
	<path class="st26" d="M182.33,92.13c0.35-0.24,0.71-0.4,1.12,0.17c-0.54-0.09-0.82,0.19-1.1,0.5c-0.19,0.21-0.43,0.18-0.48-0.18
		C181.94,92.38,182.12,92.24,182.33,92.13z"/>
	<path class="st27" d="M186.64,87.08c0.01,0.16,0,0.32-0.17,0.38c-0.21,0.07-0.27-0.08-0.25-0.24c0.05-0.45-0.14-0.92,0.17-1.34
		C186.72,86.23,186.36,86.72,186.64,87.08z"/>
	<path class="st28" d="M190.35,105.57c0.09,0.47,0.28,0.85-0.22,1.15C189.94,106.33,189.93,106,190.35,105.57z"/>
	<path class="st29" d="M183.54,100.06c-0.01,0.29,0.12,0.61-0.18,0.83c-0.03,0.02-0.16-0.02-0.19-0.07
		c-0.16-0.28-0.25-0.56,0.12-0.77C183.38,99.97,183.46,99.97,183.54,100.06z"/>
	<path class="st30" d="M189.77,80.9c-0.36-0.31-0.18-0.57-0.02-0.84c0.07,0,0.19-0.02,0.2,0C190.05,80.37,190.1,80.66,189.77,80.9z"
		/>
	<path class="st31" d="M186.64,87.08c-0.42-0.33-0.1-0.82-0.26-1.21c0.09-0.05,0.05-0.56,0.23-0.16
		C186.78,86.11,186.64,86.62,186.64,87.08z"/>
	<path class="st32" d="M184.77,87.36c-0.27,0.22-0.53,0.45-0.88,0.74c-0.04-0.58,0.22-0.83,0.6-1.01
		C184.64,87.12,184.74,87.21,184.77,87.36z"/>
	<path class="st33" d="M186.96,75.13c-0.38,0.38-0.59,0.57-0.89,0.35c-0.06-0.05-0.09-0.26-0.05-0.28
		C186.27,74.99,186.55,75.16,186.96,75.13z"/>
	<path class="st34" d="M188.21,81.07c-0.38,0.35-0.8,0.44-1.31,0.18C187.33,80.94,187.82,81.27,188.21,81.07z"/>
	<path class="st35" d="M177.96,113.06c-0.52,0.4-0.8,0.43-1.21,0.14C177.08,112.89,177.4,113.03,177.96,113.06z"/>
	<path class="st36" d="M186.64,76.56c-0.2-0.04-0.28-0.17-0.26-0.34c0.02-0.15,0.08-0.32,0.28-0.31c0.25,0.01,0.3,0.2,0.29,0.41
		C186.93,76.52,186.78,76.56,186.64,76.56z"/>
	<path class="st37" d="M192.68,87.84c0.01-0.24,0.08-0.46,0.35-0.58c0.2,0.39,0.15,0.74-0.11,1.07
		C192.7,88.24,192.83,87.97,192.68,87.84z"/>
	<path class="st38" d="M189.3,79.94c-0.05,0.2-0.11,0.37-0.3,0.32c-0.07-0.02-0.16-0.18-0.16-0.27c0-0.17,0.1-0.32,0.29-0.28
		C189.21,79.73,189.25,79.87,189.3,79.94z"/>
	<path class="st39" d="M185.62,91.88c0.13-0.32,0.4-0.55,0.61-0.38c0.3,0.25-0.01,0.38-0.25,0.42
		C185.87,91.95,185.75,91.9,185.62,91.88z"/>
	<path class="st40" d="M190.96,81.82c0.03-0.43,0.27-0.55,0.54-0.6c0.04-0.01,0.17,0.16,0.15,0.22
		C191.58,81.76,191.35,81.83,190.96,81.82z"/>
	<path class="st41" d="M187.78,113.54c-0.12,0.28-0.33,0.29-0.5,0.26c-0.12-0.02-0.35-0.02-0.29-0.25c0.06-0.22,0.26-0.28,0.46-0.24
		C187.57,113.34,187.67,113.46,187.78,113.54z"/>
	<path class="st42" d="M182.33,92.13c-0.15,0.16-0.3,0.33-0.46,0.49c-0.02-0.22-0.41-0.35-0.17-0.61
		C181.93,91.78,182.11,92.12,182.33,92.13z"/>
	<path class="st43" d="M184.77,87.36c-0.09-0.09-0.19-0.18-0.28-0.26c0.16-0.16,0.31-0.33,0.47-0.49c0.23-0.05,0.35,0.02,0.28,0.27
		C185.16,87.11,185,87.27,184.77,87.36z"/>
	<path class="st44" d="M186.82,114.92c0.35-0.33,0.74-0.37,0.84-0.19c0.17,0.32-0.24,0.25-0.42,0.32
		C187.16,115.09,187.03,115,186.82,114.92z"/>
	<path class="st45" d="M183.54,100.06c-0.08,0-0.17-0.01-0.25-0.01c0.01-0.33,0.16-0.58,0.37-0.82
		C183.84,99.55,183.78,99.82,183.54,100.06z"/>
	<path class="st46" d="M183.91,102.29c-0.22-0.38-0.21-0.67,0.01-1.04C184.21,101.63,184.01,101.92,183.91,102.29z"/>
	<path class="st47" d="M192.68,87.84c0.23,0.09,0.19,0.31,0.24,0.49c-0.04,0.17-0.01,0.39-0.23,0.47c0,0-0.09-0.03-0.09-0.03
		s-0.09,0.02-0.09,0.02C192.28,88.42,192.65,88.16,192.68,87.84z"/>
	<path class="st48" d="M182.82,95.98c-0.01-0.4-0.12-0.84,0.49-1.25c-0.19,0.53-0.13,0.95-0.51,1.24
		C182.81,95.97,182.82,95.98,182.82,95.98z"/>
	<path class="st49" d="M177.52,115.44c0.02,0.02,0.16,0.09,0.15,0.14c-0.03,0.22-0.2,0.31-0.42,0.28c-0.11-0.02-0.21-0.09-0.16-0.24
		C177.15,115.46,177.27,115.39,177.52,115.44z"/>
	<path class="st50" d="M177.7,114.31c-0.36,0.26-0.6,0.29-0.89,0.15C177.06,114.05,177.34,114.19,177.7,114.31z"/>
	<path class="st51" d="M187.35,75.56c0.41,0.12,0.69,0.43,0.6,0.62c-0.14,0.28-0.4,0.09-0.52-0.15
		C187.38,75.93,187.38,75.8,187.35,75.56z"/>
	<path class="st52" d="M185.24,86.88c-0.09-0.09-0.19-0.18-0.28-0.27c0.07-0.22,0.27-0.55,0.37-0.48
		C185.61,86.35,185.46,86.65,185.24,86.88z"/>
	<path class="st53" d="M189.4,106.24c0.2,0.48,0.29,0.77,0.03,1.12C189.13,107.04,189.32,106.73,189.4,106.24z"/>
</g>
</svg>
