<?xml version="1.0" encoding="utf-8"?>
<!-- Generator: Adobe Illustrator 25.2.1, SVG Export Plug-In . SVG Version: 6.00 Build 0)  -->
<svg version="1.1" id="Layer_1" xmlns="http://www.w3.org/2000/svg" xmlns:xlink="http://www.w3.org/1999/xlink" x="0px" y="0px"
	 viewBox="0 0 560 288" style="enable-background:new 0 0 560 288;" xml:space="preserve">
<style type="text/css">
	.st0{fill:#FCFDFB;}
	.st1{fill:#466C97;}
	.st2{fill:#4A729C;}
	.st3{fill:#4C6F93;}
	.st4{fill:#496E9A;}
	.st5{fill:#4A6E97;}
	.st6{fill:#446D98;}
	.st7{fill:#486F98;}
	.st8{fill:#4B77A0;}
	.st9{fill:#4B6D91;}
	.st10{fill:#4974A0;}
	.st11{fill:#426E9B;}
	.st12{fill:#4D6C93;}
	.st13{fill:#486C92;}
	.st14{fill:#4A7094;}
	.st15{fill:#496D94;}
	.st16{fill:#466D93;}
	.st17{fill:#4C6B8D;}
	.st18{fill:#496E90;}
	.st19{fill:#4C6B90;}
	.st20{fill:#496A8D;}
	.st21{fill:#436A96;}
	.st22{fill:#42688F;}
	.st23{fill:#4B6E8F;}
	.st24{fill:#426C92;}
	.st25{fill:#56759C;}
	.st26{fill:#4B719C;}
	.st27{fill:#496C97;}
	.st28{fill:#486E96;}
	.st29{fill:#4C678F;}
	.st30{fill:#526B8F;}
	.st31{fill:#E9F8FA;}
	.st32{fill:#507094;}
	.st33{fill:#476286;}
	.st34{fill:#E5F3F8;}
	.st35{fill:#4A6E94;}
	.st36{fill:#41698E;}
	.st37{fill:#5074A9;}
	.st38{fill:#386798;}
	.st39{fill:#ECF6F8;}
	.st40{fill:#436796;}
	.st41{fill:#4F5976;}
	.st42{fill:#515778;}
	.st43{fill:#366C97;}
	.st44{fill:#E8F4F9;}
	.st45{fill:#D4EEF8;}
	.st46{fill:#4D6189;}
	.st47{fill:#DAEFF7;}
	.st48{fill:#E7F2F7;}
	.st49{fill:#436BAA;}
	.st50{fill:#3E5D70;}
	.st51{fill:#3D5C74;}
	.st52{fill:#55727A;}
	.st53{fill:#4B6374;}
	.st54{fill:#CDEDF6;}
	.st55{fill:#DBF3F8;}
	.st56{fill:#EBFAFA;}
	.st57{fill:#E3F0F7;}
	.st58{fill:#E6F7FC;}
	.st59{fill:#D1F2FA;}
	.st60{fill:#D6F2FB;}
	.st61{fill:#EDF5FA;}
	.st62{fill:#CFEEF9;}
	.st63{fill:#EBF4F8;}
	.st64{fill:#BDDBEF;}
	.st65{fill:#BDDFEE;}
	.st66{fill:#C6D7E4;}
	.st67{fill:#DAFDFE;}
	.st68{fill:#E6F1F5;}
	.st69{fill:#D3FBFE;}
</style>
<g>
	<path class="st0" d="M279.73,184.44c-39.11,0-78.22-0.03-117.33,0.06c-2.92,0.01-3.92-0.42-3.9-3.68
		c0.18-24.46,0.14-48.92,0.04-73.38c-0.01-2.76,0.2-3.94,3.65-3.93c78.55,0.13,157.1,0.12,235.65,0.04c2.76,0,3.68,0.28,3.66,3.44
		c-0.18,24.62-0.19,49.25,0,73.88c0.03,3.35-1.1,3.65-3.94,3.64C358.28,184.41,319.01,184.44,279.73,184.44z"/>
	<path class="st1" d="M178.53,128.32c-0.16-0.04-0.43-0.05-0.46-0.14c-1.95-5.89-6.9-4.61-11.23-4.45c-2.64,0.1-3.49-0.8-3.39-3.35
		c0.16-3.93,0-7.86,0.08-11.79c0.02-1.31-0.66-3.28,1.85-3.12c2.22,0.14,1.82,1.95,1.85,3.34c0.06,2.78,0.29,5.6-0.04,8.35
		c-0.35,2.9,1.03,3.18,3.35,3.16c2.32-0.02,4.27,0.13,3.98-3.2c-0.26-2.93,0.01-5.89-0.04-8.84c-0.07-3.43,1.47-3.57,3.93-2
		c-1.04,4.72-0.28,9.17,1.49,13.66C181.01,122.76,182.35,126.08,178.53,128.32z"/>
	<path class="st2" d="M175.31,170.79c-3,1.55-0.96,6.53-4.86,6.71c-3.14,0.14-1.61-3.88-3.62-5.1c-1.01,0.67-0.55,1.7-0.59,2.58
		c-0.07,1.38-0.05,2.77-2.04,2.57c-1.71-0.17-1.4-1.55-1.42-2.63c-0.04-2.78,0-5.57,0.01-8.35c0.01-1.21,0.18-2.36,1.7-2.54
		c1.38-0.16,2.65-0.04,3.23,1.55c0.78,2.14,1.6,4.26,2.81,7.46c1.11-2.84,1.96-4.78,2.62-6.79c0.54-1.65,1.49-2.48,3.27-2.24
		c1.85,0.24,1.78,1.66,1.8,2.97c0.03,2.78,0.02,5.57,0.02,8.35c0,0.99,0.03,2.09-1.32,2.2c-1.8,0.15-1.59-1.23-1.61-2.34
		C175.29,173.77,175.31,172.35,175.31,170.79z"/>
	<path class="st3" d="M208.79,168.43c1.51-1.31-0.57-4.25,2.33-4.36c2.98-0.12,1.52,2.72,2.45,4.14c2.07-0.37,1.56-3.04,3.31-3.72
		c0.99-0.39,1.87-0.72,2.71,0.12c0.5,0.5,0.71,1.36,0.06,1.69c-5.28,2.65-2.01,5.71-0.51,8.7c0.35,0.71,0.62,1.46,0.93,2.2
		c-1.3,0.51-2.53,0.78-3.46-0.04c-1.42-1.26-2.49-4.83-4.09-0.01c-0.29,0.88-2.51,0.97-2.93-0.88c-0.29-1.25-0.17-2.59-0.24-3.99
		c-2.1,0.58-2.01,2.5-2.61,3.84c-0.73,1.62-2.08,1.85-3.23,1.33c-1.69-0.76-0.19-2,0.21-2.78c1.5-2.91,4.64-5.77-0.54-8.24
		c-0.74-0.35-0.6-1.16-0.24-1.71c0.52-0.8,1.35-0.72,2.21-0.51C207.24,164.71,207.21,167,208.79,168.43z"/>
	<path class="st4" d="M323.8,123.29c-1.34,0.41-2.83,0.71-2.93-1.24c-0.18-3.26-0.07-6.53-0.09-9.8c-0.01-1.17,0.54-1.78,1.75-1.85
		c1.38-0.08,2.63-0.06,3.16,1.59c0.71,2.17,1.52,4.31,2.66,7.48c1.07-2.93,1.92-5.03,2.59-7.19c0.49-1.57,1.53-1.89,3-1.88
		c1.95,0.02,1.97,1.28,1.97,2.66c-0.01,2.61,0.01,5.23-0.01,7.84c-0.01,1.11,0.21,2.56-1.42,2.62c-1.59,0.05-1.59-1.33-1.62-2.49
		c-0.02-1.14,0-2.27,0-3.47c-3.03,0.84-0.53,9.11-6.96,4.71c-1.39-1-1.24-2.49-1.53-3.93C324.56,120.04,325.12,121.82,323.8,123.29z
		"/>
	<path class="st5" d="M278.92,172.6c0.03-0.65,0.08-1.3,0.1-1.95c0.22-6.1,4.49-8.75,10.45-6.62c1.8,0.64,1.41,1.96,1.48,3.18
		c0.17,3.05-0.35,6.11,1.15,9.11c0.55,1.11,1.12,3.64-0.96,4.19c-2.2,0.58-0.84-2.45-2.25-3.03c-3.27-1.6-6.07-0.69-8.63,1.57
		c-0.68,0.88-1.2,2.1-2.64,1.7c-1.24-0.34-0.92-1.49-1.1-2.41C276,175.86,276.59,173.89,278.92,172.6z"/>
	<path class="st6" d="M251.49,176.32c-0.1,1.62-0.1,2.28-0.19,2.92c-0.19,1.29,0.69,3.32-1.81,3.18c-2.42-0.14-1.5-2.16-1.55-3.42
		c-0.12-2.95,0.01-5.91-0.02-8.86c-0.04-3.26-1.23-6.61,4.84-5.77c2.89,0.4,5.57,0.03,7.1,2.72c1.55,2.72,1.43,5.77-0.52,8.32
		C257.4,177.96,254.7,178.26,251.49,176.32z"/>
	<path class="st7" d="M235.31,122.38c-1.48,0.56-2.97,2.44-4.42-0.03c-0.34-2.01,1.35-3.69,0.94-5.71
		c-0.16-0.82-0.39-1.73-1.42-1.68c-0.97,0.04-1.26,0.92-1.37,1.76c-0.26,1.94,1.57,3.68,0.54,5.7c-2.57,0.2-1.93,2.12-2,3.66
		c-0.06,1.31,0.05,2.83-1.91,2.73c-1.67-0.08-1.47-1.47-1.48-2.58c-0.02-4.42,0.04-8.83-0.04-13.25c-0.04-2.24,0.69-2.78,2.96-2.31
		c2.97,0.61,6.49-1.44,8.92,1.85C238.67,116.02,238.98,119.34,235.31,122.38z"/>
	<path class="st8" d="M208.4,117.03c0,0.98,0.15,2-0.03,2.95c-0.27,1.39,1.06,3.68-1.66,3.84c-2.23,0.13-1.96-1.77-1.99-3.2
		c-0.04-1.49-0.41-2.5-2.21-2.55c-2.16-0.07-2.37,1.23-2.39,2.86c-0.02,1.28,0.16,2.85-1.85,2.78c-2.27-0.08-1.92-1.8-1.91-3.25
		c0.01-2.62,0.02-5.25,0.04-7.87c0.01-1.02,0.09-2.01,1.43-2.15c1.81-0.19,2.3,0.87,2.27,2.4c-0.03,1.45,0.21,2.5,2.11,2.56
		c2.03,0.06,2.63-0.85,2.55-2.64c-0.07-1.58,0.57-2.54,2.33-2.32c1.76,0.23,1.24,1.64,1.31,2.68
		C208.46,114.4,208.39,115.72,208.4,117.03z"/>
	<path class="st9" d="M186.7,159.28c3.4,0,3.4,0,8.36,8.04c1.9-1.77,2.38-4.21,3.38-6.32c0.73-1.52,1.74-2.67,3.4-1.8
		c1.52,0.8,0.2,2.03-0.22,2.95c-1.86,4.02-3.79,8.01-5.72,12c-0.81,1.66-1.82,3.19-3.89,3.4c-0.93,0.1-2.12,0.33-2.48-0.92
		c-0.29-1-0.09-1.93,1.21-2.23c3.57-0.83,2.8-2.84,1.48-5.14C190.35,166.04,188.61,162.75,186.7,159.28z"/>
	<path class="st10" d="M349.69,151.92c-1.95,0.7-3.69,0.97-3.64-1.95c0.03-1.56,0.82-3.46-1.95-3.49c-2.17-0.02-2.86,1.11-2.74,3.1
		c0.09,1.39-0.13,2.73-2.04,2.59c-1.99-0.14-1.63-1.71-1.65-2.94c-0.05-2.61,0-5.22,0-7.84c0-1.18-0.01-2.31,1.67-2.39
		c1.5-0.07,2.14,0.65,2.05,2.04c-0.14,1.98,0.46,2.94,2.74,2.91c2.57-0.04,1.84-1.67,1.88-3c0.08-2.76,2.07-1.85,3.59-1.85
		C351.93,143.37,351.96,147.63,349.69,151.92z"/>
	<path class="st11" d="M354.64,139.1c0.17,0,0.33,0,0.5-0.01c10.5-0.28,10.49-0.28,9.47,10.4c-0.13,1.37-0.06,2.76-1.96,2.7
		c-1.62-0.04-1.73-1.26-1.6-2.47c0.11-1.04,0.14-2.14-1.14-2.28c-1.1-0.12-1.69,0.94-2.18,1.75c-1.37,2.26-2.87,4.1-5.91,2.69
		c0.14-2.91,1.01-5.75,0.02-8.77C351.18,141.14,353.05,140.01,354.64,139.1z"/>
	<path class="st12" d="M307.64,114.78c-1.33-1.86-2.73-1.53-4.34-0.6c-0.76,0.44-1.66,0.02-2.09-0.78
		c-0.51-0.96,0.24-1.52,0.91-1.98c2.09-1.44,4.44-1.32,6.68-0.69c2.23,0.62,2.85,2.53,2.91,4.64c0.01,0.49,0.08,1,0,1.47
		c-0.35,2.18,1.18,5.9-0.67,6.22c-2.47,0.43-5.36,0.92-8.06,0.42c-1.82-0.34-2.98-1.58-3-3.42c-0.02-1.82,1.21-3.2,2.88-3.53
		C304.58,116.18,306.19,115.88,307.64,114.78z"/>
	<path class="st13" d="M306.98,148.93c-0.25-2.17,1.29-3.07,2.86-3.95c0.6-0.63,1.85-0.52,2.02-1.54c0.08-0.48-0.63-0.41-1.04-0.49
		c-1.26-0.11-2.69,0.24-3.46-1.36c1.72-1.74,3.7-2.75,6.31-2.65c3.34,0.13,5.26,1.44,5.09,5.01c-0.07,1.45-0.2,2.96,0.07,4.37
		c0.74,3.8-1.11,4.18-4.1,3.29C311.5,152.58,308.07,154.08,306.98,148.93z"/>
	<path class="st14" d="M245.22,170.97c-0.1,3.85-3.2,6.78-7.02,6.65c-3.81-0.14-6.9-3.28-6.82-6.95c0.07-3.61,3.4-6.73,7.13-6.67
		C242.3,164.05,245.31,167.19,245.22,170.97z"/>
	<path class="st15" d="M284.5,146.74c-0.55,0.86,2.59,5.12-1.38,5.14c-3.18,0.01-0.81-4-1.49-6.1c-0.24-0.74-0.05-1.62-0.07-2.44
		c-0.05-1.79-1.2-2.02-2.7-2c-1.68,0.03-1.73,1.09-1.79,2.3c-0.12,2.26,0.38,4.58-0.73,6.75c-1.04,2.06-3.06,2.47-4.58,1.52
		c-2.1-1.32,0.68-1.75,0.96-2.68c0.41-1.37,0.7-2.9,0.51-4.29c-0.6-4.5,0.71-6.11,5.76-6.16
		C284.55,138.72,286.14,140.5,284.5,146.74z"/>
	<path class="st16" d="M189.54,145.93c-0.7,1.77,1.43,5.76-1.54,5.88c-3.57,0.14-1.13-3.81-1.77-5.86
		c-0.54-1.77,1.08-4.67-2.65-4.58c-3.58,0.1-1.79,2.85-2.01,4.42c-0.4,2.83,0.51,6.29-4.06,6.41c-1.18,0.03-2.98-0.77-1.61-1.77
		c3.21-2.34,1.65-5.36,1.84-8.04c0.17-2.38,0.59-3.8,3.35-3.4c0.65,0.09,1.32-0.02,1.98,0C190.33,139.25,189.47,137.6,189.54,145.93
		z"/>
	<path class="st17" d="M388.36,112.44c2.7-2.51,5.87-2.78,9.02-1.31c2.81,1.3,1.97,4.16,2.01,6.5c0.1,6.86,0.07,6.86-9.88,5.67
		c-3.8-3.77-3.25-5.49,2.69-8.2C390.49,114.73,388.09,115.4,388.36,112.44z"/>
	<path class="st18" d="M273.64,176.38c-3.02,1.54-6.03,1.88-8.83-0.36c-2.11-1.69-2.94-4.03-2.28-6.62
		c0.92-3.64,3.43-5.83,7.24-5.29c4.68,0.67,6.65,3.86,6.34,8.47C276.71,174.76,275.53,175.8,273.64,176.38z"/>
	<path class="st19" d="M241.28,116.48c0.33,0.02,0.64-0.06,0.92-0.23c1.09-0.5,2.89-0.24,2.76-2.1c-0.06-0.87-0.88-1.28-1.81-0.71
		c-1.46,0.78-2.93,1.57-4.35-0.33c1.72-1.82,3.65-2.87,6.27-2.76c3.38,0.14,5.31,1.48,5.11,5.05c-0.01,0.16,0.04,0.33,0.01,0.49
		c-0.45,2.5,0.8,7.11-0.38,7.16c-3.43,0.15-7.32,2.04-10.61-0.73C238.22,119.79,237.34,117.3,241.28,116.48z"/>
	<path class="st20" d="M181.34,115.44c0.3-3.7,3.01-4.69,6.04-4.97c2.69-0.25,4.88,0.92,5.81,3.56c0.8,2.26,0.89,4.35-2.62,3.96
		c-0.49-0.06-1.03-0.29-1.46-0.16c-1.32,0.42-3.91-1.2-3.78,1.36c0.11,2,2.19,2.63,4.22,1.65c1.73-0.84,2.75,0.15,3.73,1.32
		c-2.82,2.03-8.67,2.5-10.76,0.62C180.26,120.75,179.52,118.24,181.34,115.44z"/>
	<path class="st21" d="M263.31,147.04c-0.65,1.47,0.89,5.1-0.72,4.78c-3.1-0.61-6.12,1.62-8.98-0.23c-2.4-1.55-2.32-4.56,0.28-5.91
		c1.13-0.59,2.59-0.55,3.75-1.1c0.79-0.38,2.71-0.23,1.77-2.1c-0.65-1.3-1.83-1.56-2.86-0.67c-1.34,1.16-2.86,1.85-3.48-0.09
		c-0.55-1.72,1.52-2.24,2.88-2.58C261.18,137.82,263.28,140.04,263.31,147.04z"/>
	<path class="st22" d="M297.31,117.05c0,0.66,0.15,1.35-0.03,1.96c-0.46,1.54,1.34,4.18-1.39,4.49c-3.11,0.35-1.65-2.5-1.91-3.98
		c-0.28-1.58-1.22-1.69-2.46-1.72c-1.5-0.04-2.47,0.25-2.59,2.09c-0.09,1.34,1.09,3.84-1.76,3.61c-2.51-0.2-1.42-2.53-1.54-3.96
		c-0.17-2.11-0.08-4.25-0.03-6.37c0.03-1.24-0.28-2.74,1.83-2.72c1.87,0.02,1.59,1.34,1.53,2.4c-0.11,1.88,0.61,2.58,2.56,2.59
		c2.07,0.01,2.55-0.91,2.42-2.69c-0.08-1.14-0.08-2.35,1.68-2.34c2.11,0.01,1.78,1.39,1.71,2.72c-0.06,1.3-0.01,2.61-0.01,3.92
		C297.33,117.05,297.32,117.05,297.31,117.05z"/>
	<path class="st23" d="M365.98,123.73c-4.66,1.03-6.08-1.08-5.45-5.28c0.12-0.8-0.15-1.68,0.06-2.44c0.51-1.85-1.63-4.87,1.41-5.42
		c3.35-0.6,1.86,2.61,2.26,4.21c0.32,1.25,1.13,1.44,2.18,1.48c3.06,0.13,7.21-0.57,6.95,4.01
		C373.13,124.81,368.76,123.26,365.98,123.73z"/>
	<path class="st24" d="M301.95,151.7c-1.03-0.52-1.44-6.33-3.24-0.36c-0.28,0.94-1.27,0.91-2.1,0.74c-1.08-0.23-1.01-1.16-1.03-1.94
		c-0.08-2.79-0.14-5.58-0.13-8.37c0.01-1.19-0.53-2.78,1.68-2.78c2.11,0,1.76,1.48,1.83,2.74c0.04,0.81,0.08,1.62,0.12,2.51
		c2.43-0.55,1.71-3.08,3.02-4.26c0.97-0.87,2.17-1.44,3.1-0.72c1.61,1.24-0.2,1.8-0.88,2.51c-2.44,2.55-1.96,4.95,0.35,7.26
		c0.89,0.73,1.94,1.8,1.07,2.73C304.78,152.8,303.2,152.79,301.95,151.7z"/>
	<path class="st25" d="M246.08,150.89c-0.91-1.39,1.06-4.2-2.44-4.38c-3.35-0.17-2.59,2.07-2.73,3.89c-0.1,1.33-0.73,2.12-2.19,2.04
		c-1.37-0.08-1.49-1.04-1.5-2.06c-0.01-3.1-0.01-6.2,0-9.3c0-1.03,0.14-1.96,1.5-2.05c1.43-0.09,2.23,0.52,2.16,1.95
		c-0.09,1.93,0.4,2.99,2.71,2.98c3.14-0.01,1.82-2.47,2.47-3.85c4.05-0.77,2.82,2.66,2.42,3.85
		C247.7,146.26,251.42,150.24,246.08,150.89z"/>
	<path class="st26" d="M326.66,151.25c-1.58,1.04-0.7,2.61-0.84,3.94c-0.21,1.95-0.68,3.25-2.9,1.66c1.95-3.8-0.28-7.72,0.33-11.58
		c0.33-2.05-0.39-4.32,1.49-5.99c0.77,0.11,1.39,0.6,2.32,0.27c3.39-1.24,6.34-0.61,7.6,3.02c1.23,3.56,1.23,7.07-2.93,9.09
		c-0.76-0.67-1.05-1.55-1.15-2.51c-0.68-1.86,1.09-5.77-2.15-5.22c-2.81,0.48-0.04,3.84-0.32,5.9
		C327.86,150.53,327.35,150.97,326.66,151.25z"/>
	<path class="st27" d="M275.09,123.65c-4.39,0.95-5.86-0.93-5.22-4.99c0.15-0.96-0.15-1.99,0.04-2.93c0.35-1.75-1.2-4.63,1.24-5.07
		c3.46-0.63,1.62,2.67,2.13,4.2c0.51,1.53,1.62,1.42,2.75,1.42c3,0.01,6.91-0.31,6.76,3.72
		C282.6,124.77,278.06,123.33,275.09,123.65z"/>
	<path class="st28" d="M234.01,145.73c0,1.14,0.03,2.29-0.01,3.43c-0.05,1.25,0.3,2.78-1.61,3.03c-1.87,0.24-2.26-0.96-2.15-2.43
		c0.15-2.23-0.95-2.71-3.01-2.63c-2.55,0.1-4.64-0.97-4.81-3.8c-0.08-1.41-1.36-3.57,0.95-4.17c2.83-0.73,1.9,1.79,2.24,3.16
		c0.34,1.38,1.05,2.4,2.62,2.48c1.19,0.07,1.69-0.58,1.97-1.7c0.37-1.46-1.15-4.21,1.99-3.97c3.23,0.24,1.32,3.04,1.79,4.65
		C234.15,144.38,234.01,145.07,234.01,145.73z"/>
	<path class="st29" d="M379.54,123.32c-1.52,0.44-3.14,0.76-3.3-1.45c-0.23-3.25-0.23-6.51-0.28-9.77
		c-0.02-1.23,0.75-1.64,1.91-1.68c1.34-0.04,1.68,0.69,1.66,1.82c-0.01,1.11,0,2.22,0,3.9c2.84-1.81,2.34-6.86,6.82-5.6
		c0.94,0.87,0.59,1.85,0,2.61c-1.69,2.18-1.98,4.31-0.43,6.73c0.65,1.02,1.51,2.52,0.21,3.52c-0.99,0.76-2.45,0.79-3.58-0.24
		l0.11,0.06C381.57,121.88,380.49,120.58,379.54,123.32z"/>
	<path class="st30" d="M174.41,151.65c-3.09,1.67-3.86-0.64-4.82-2.5c-0.47-0.91-1-1.87-2.14-1.59c-1,0.24-0.74,1.31-0.72,2.07
		c0.04,1.11,1.23,2.69-1.27,2.6c-1.92-0.07-1.96-1.35-1.91-2.72c0.1-2.74,0.29-5.48,0.26-8.22c-0.01-0.98-0.53-1.96,0.96-2.19
		c1.69-0.27,1.87,0.81,1.91,2.07c0.03,1.1,0.15,2.21,0.23,3.37c3.08-0.04,2.41-2.87,3.6-4.2c0.99-1.1,2.26-1.91,3.39-0.97
		c1.48,1.21-0.28,1.73-1.01,2.45C168.95,145.67,173.75,148.41,174.41,151.65z"/>
	<path class="st31" d="M181.34,115.44c0.55,8.03,4,9.97,11.96,6.72c-1.45,1.75,0.06,9.11-5.74,2.71c-1.6-1.76-4.26,0.18-5.84,2.01
		c-0.85,0.98-1.15,3.06-3.19,1.44c1.93-2.13,1.6-5.09,0.73-6.92c-2.39-5.07-1.3-10.05-0.86-15.12c0.05,2.08,0.19,4.17,0.13,6.25
		C178.47,114.55,179.25,115.56,181.34,115.44z"/>
	<path class="st32" d="M352.85,123.68c-3.8,0.05-5.85-1.4-6.72-4.21c-0.87-2.83-0.56-5.63,1.82-7.65c2.2-1.87,4.82-1.93,7.43-0.74
		c0.85,0.39,2.08,0.99,1.77,1.97c-0.37,1.14-1.72,1.71-2.86,1.02c-1.47-0.9-2.92-2.1-4.17-0.08c-1.18,1.9-1.21,4.18-0.02,6.08
		c1.15,1.85,2.73,1.25,4.2,0.09c1.16-0.91,2.51-0.27,2.95,0.62c0.65,1.32-0.71,1.98-1.78,2.35
		C354.4,123.49,353.24,123.6,352.85,123.68z"/>
	<path class="st33" d="M258.02,119.42c0.05,1.72-0.18,3.36-2.11,3.99c-1.09,0.35-2.42,0.67-3.21-0.45
		c-0.97-1.36,0.68-1.35,1.23-1.97c1.86-2.11,0.94-4.73,0.88-7.08c-0.08-2.82,0.89-3.86,3.67-3.52c1.14,0.14,2.34,0.17,3.47-0.01
		c3.46-0.54,4.81,0.75,4.39,4.25c-0.29,2.43-0.08,4.92-0.13,7.38c-0.02,0.92-0.46,1.58-1.48,1.56c-0.92-0.02-1.59-0.49-1.63-1.48
		c-0.06-1.8-0.24-3.63-0.01-5.41c0.38-2.97-0.79-4.29-3.76-4.15C255.55,114.21,256.95,116.85,258.02,119.42z"/>
	<path class="st34" d="M382.54,123.16c1.38,0.13,4.73,0.93,2.96-1.34c-3.57-4.58-1.23-7.68,0.85-11.27c0.67,0.63,1.34,1.27,2,1.9
		c0.96,1.52,1.95,2.62,3.83,0.99c1.12-0.98,2.59-1.14,3.19,0.49c0.69,1.88-1.14,1.93-2.28,2.31c-5.97,1.96-6.14,2.29-3.59,7.07
		C387.18,123.39,384.81,125.91,382.54,123.16z"/>
	<path class="st35" d="M222.11,170.94c0-6.82,1.67-8.37,6.97-6.94c0.86,0.23,1.61,0.56,1.67,1.47c0.08,1.11-0.88,1.35-1.67,1.23
		c-3.21-0.47-3.7,1.07-3.78,3.89c-0.07,2.29,1.7,6.58-1.29,6.59C220.11,177.19,223.26,172.75,222.11,170.94z"/>
	<path class="st36" d="M222.25,111.49c-6.02,0.83-4.34,5.08-4.58,8.42c-0.1,1.44,0.78,3.76-1.94,3.6c-2.3-0.14-1.11-2.26-1.52-3.5
		c-0.86-2.58,2.47-7-3.3-7.49c-0.21-0.02-0.55-0.8-0.48-1.16c0.07-0.35,0.59-0.86,0.92-0.86
		C214.86,110.49,218.42,110.02,222.25,111.49z"/>
	<path class="st37" d="M212.18,146.3c-0.78,1.6,1.75,5.26-1.7,5.67c-3.63,0.43-1.12-3.61-2.46-5.24c-1.94-2.35,1.38-4.34,0.66-6.76
		c-0.21-0.72,1.09-0.98,1.93-0.94c0.94,0.05,1.54,0.51,1.56,1.47C212.2,142.29,212.18,144.08,212.18,146.3z"/>
	<path class="st38" d="M219.14,145.32c-1.27,2.35,1.82,6.48-2.18,6.53c-3.18,0.04-1.48-3.97-1.42-6c0.06-2.22-1.98-6.38,1.41-6.49
		C221.09,139.23,217.46,143.58,219.14,145.32z"/>
	<path class="st39" d="M354.64,139.1c-1.98,2.06-2.84,4.23-0.82,6.78c2.37,2.98-1.59,3.92-2.01,6.01c-0.71,0.01-1.42,0.02-2.13,0.04
		c-0.03-4.27-0.06-8.54-0.09-12.8C351.28,138.02,352.96,139.36,354.64,139.1z"/>
	<path class="st39" d="M229.58,122.42c-0.66-1.64-1.62-3.24-1.92-4.94c-0.35-2.01,0.27-4.33,2.58-4.56c2.91-0.29,3.08,2.2,3.25,4.41
		c0.17,2.25-1.45,3.5-2.61,5.02C230.45,122.37,230.02,122.4,229.58,122.42z"/>
	<path class="st40" d="M202.88,139.16c0.56,2.22,2.54,5.91,1.54,7.06c-1.67,1.91,0.88,6.23-2.65,5.68c-3.03-0.47-1.11-4.1-1.48-6.29
		c-0.27-1.58-0.04-3.25-0.03-4.88C200.28,139.54,200.87,138.95,202.88,139.16z"/>
	<path class="st41" d="M288.39,145.62c1.38-1.99-1.88-6.18,1.98-6.22c2.93-0.03,1.42,4.06,1.31,6.12c-0.11,2.17,2.16,6.29-1.68,6.28
		C287.02,151.8,289.47,147.75,288.39,145.62z"/>
	<path class="st42" d="M196.75,145.36c-1.1,2.41,1.16,6.47-1.81,6.43c-3.72-0.05-1.5-4.15-1.59-6.32c-0.09-2.04-1.73-6.1,1.28-6.07
		C198.54,139.43,194.95,143.73,196.75,145.36z"/>
	<path class="st43" d="M339.72,123.5c-0.06-3.4-0.1-6.81-0.2-10.21c-0.05-1.57,0.04-2.96,2.12-3.03c1.33,1.74,2.25,11.14,1.18,12.72
		C342.02,124.18,340.84,123.79,339.72,123.5z"/>
	<path class="st44" d="M273.64,176.38c0.82-1.26,1.64-2.53,2.46-3.79c0.94,0,1.88,0.01,2.82,0.01c0.35,1.61-1.4,2.03-1.82,3.13
		c-0.56,1.49-1.04,3.82,0.24,4.48c2.54,1.3,1.14-2.39,2.7-2.76c1.67-0.4,3.37-1.15,4.94,0.26c-0.57,0.29-1.19,0.51-1.71,0.88
		c-3.41,2.41-6.88,5.25-8.29-1.76C274.95,176.61,274.11,176.53,273.64,176.38z"/>
	<path class="st45" d="M339.72,123.5c1.08-0.06,2.82,0.39,2.8-1.07c-0.06-4.06,1.5-8.27-0.87-12.17c0.55-1.29-2.5-1.78-0.79-3.24
		c0.55-0.47,1.68-0.89,2.19-0.64c1.29,0.65,0.55,2.05,0.58,3.1c0.11,3.93,0.08,7.86,0.08,11.8
		C343.71,124.33,342.43,125.2,339.72,123.5z"/>
	<path class="st46" d="M324.74,139.27c-1.25,4.41-1.42,8.81-0.27,13.3c0.41,1.59,1.15,3.64-1.55,4.27
		c-1.06-5.25-0.18-10.56-0.52-15.83C322.27,139.16,323.08,138.7,324.74,139.27z"/>
	<path class="st47" d="M241.28,116.48c-2.31,1.39-2.75,3.42-2.06,5.85c-1.33-2.15-2.6-0.03-3.9,0.05c2.1-3.15,2.04-6.45,0.72-9.85
		C237.7,113.95,239.01,115.84,241.28,116.48z"/>
	<path class="st48" d="M301.95,151.7c2.62,0.84,4.58,1,2.73-2.66c0.77-0.04,1.54-0.07,2.31-0.11c1.61,3.68,4.54,3.61,7.76,2.68
		C310.49,153.73,306.23,153.57,301.95,151.7z"/>
	<path class="st49" d="M258.02,119.42c-3.52-1.55-1.79-4.53-1.53-6.78c0.2-1.67,1.83-0.27,2.83-0.1
		C257.31,114.54,258.79,117.19,258.02,119.42z"/>
	<path class="st50" d="M246.08,150.89c2.99-2.6,2.98-8.26-0.03-10.77c1.49-1.81,2.85-1.61,3.05,0.69c0.29,3.21,0.34,6.5-0.05,9.7
		C248.79,152.72,247.37,152.9,246.08,150.89z"/>
	<path class="st48" d="M310.83,142.96c0.65-1.33,1.63-2.08,3.1-1.34c0.46,0.24,0.97,1.02,0.92,1.5c-0.15,1.44-1.52,1.47-2.59,1.7
		c-0.78,0.17-1.61,0.11-2.42,0.16C310.17,144.31,310.5,143.64,310.83,142.96z"/>
	<path class="st51" d="M284.99,177.71c-1.65-0.09-3.3-0.18-4.94-0.26c2.95-1.66,5.9-2.84,8.84,0.03
		C287.58,177.56,286.29,177.63,284.99,177.71z"/>
	<path class="st47" d="M243.15,113.44c1.51-1.37,3.33-0.86,3.29,0.75c-0.05,2.24-2.41,2.14-4.24,2.06
		C242.43,115.28,245.18,115.16,243.15,113.44z"/>
	<path class="st52" d="M185.25,175.85c0.05,1.24-0.69,1.67-1.79,1.73c-1.08,0.06-1.92-0.28-2.02-1.49c-0.1-1.19,0.58-1.72,1.73-1.73
		C184.23,174.34,185.04,174.68,185.25,175.85z"/>
	<path class="st53" d="M326.66,151.25c0.37-0.44,0.73-0.88,1.1-1.32c1.02-1.12,2.26-1.63,3.79-1.36c0.06,1.03,0.13,2.06,0.19,3.08
		C329.97,152.39,328.25,152.64,326.66,151.25z"/>
	<path class="st54" d="M323.8,123.29c0-1.93,0-3.87,0-6.51c1.6,1.99,2.24,3.58,2.09,5.49C325.19,122.61,324.49,122.95,323.8,123.29z
		"/>
	<path class="st55" d="M379.54,123.32c0-1.41,0-2.82,0-4.48c2.38,0.9,2.66,2.69,3.12,4.37
		C381.61,122.86,380.56,122.61,379.54,123.32z"/>
	<path class="st56" d="M287.27,170.3c-0.35,2.03,0.92,4.83-2.77,4.6c-1.08-0.07-3.04-0.17-2.08-1.6c1.39-2.08-1.36-5.8,2.52-6.48
		C288.06,166.26,286.85,168.99,287.27,170.3z"/>
	<path class="st57" d="M257.3,170.32c-0.1,2.52-0.43,4.7-3.03,4.59c-2.42-0.11-3.04-2.24-3-4.31c0.04-1.84,0.47-3.75,2.84-3.84
		C256.84,166.67,257.03,168.81,257.3,170.32z"/>
	<path class="st58" d="M361.18,143.22c0.06,1.64-1.04,1.75-2.28,1.74c-1.21,0-2.49-0.21-2.57-1.58c-0.09-1.6,1.13-2.13,2.63-2.12
		C360.34,141.27,361.12,141.82,361.18,143.22z"/>
	<path class="st59" d="M307.96,119.27c-0.27,1.29-1.14,1.88-2.42,1.97c-0.95,0.07-1.74-0.4-1.74-1.28c0.01-1.53,1.43-1.5,2.5-1.8
		C307.29,117.88,307.86,118.22,307.96,119.27z"/>
	<path class="st60" d="M314.95,148.22c-0.34,1.21-1.35,1.64-2.56,1.62c-0.9-0.01-1.57-0.51-1.44-1.51c0.2-1.55,1.64-1.36,2.64-1.61
		C314.61,146.46,315.03,147.13,314.95,148.22z"/>
	<path class="st61" d="M241.81,170.44c-0.36,2.18-0.58,4.31-3.28,4.39c-2.62,0.08-3.38-1.75-3.45-3.9c-0.07-2.14,0.57-4,3.16-4.18
		C240.99,166.57,241.31,168.7,241.81,170.44z"/>
	<path class="st62" d="M395.81,119.2c-0.32,1.29-1.12,1.99-2.41,2.05c-0.9,0.05-1.7-0.32-1.77-1.27c-0.13-1.69,1.37-1.54,2.39-1.77
		C394.8,118.03,395.65,118.12,395.81,119.2z"/>
	<path class="st63" d="M266.02,171.14c-0.01-2.58,0.62-4.32,3.22-4.39c2.67-0.08,3.37,1.98,3.44,3.93c0.07,2.19-0.68,4.43-3.55,4.27
		C266.67,174.79,265.92,172.99,266.02,171.14z"/>
	<path class="st64" d="M246.85,119.28c-0.44,1.38-1.42,2.07-2.89,2.04c-0.92-0.02-1.7-0.52-1.67-1.41c0.08-1.82,1.82-1.54,2.95-1.93
		C246.25,117.65,246.7,118.32,246.85,119.28z"/>
	<path class="st65" d="M190.55,115.02c-2.16,0.47-3.82,0.84-5.5-0.08C187.49,112.13,187.49,112.13,190.55,115.02z"/>
	<path class="st66" d="M255.23,148.55c0.2-1.75,1.76-1.59,2.89-2c0.85-0.31,1.73-0.2,1.76,0.87c0.05,1.54-1.09,2.24-2.43,2.48
		C256.42,150.09,255.55,149.68,255.23,148.55z"/>
	<path class="st67" d="M366.96,121.29c-0.97-0.26-2.59,0.58-2.78-1.12c-0.18-1.64,1.25-1.61,2.43-1.61c1.3,0.01,3.08-0.19,3.13,1.51
		C369.8,121.68,368.06,121.13,366.96,121.29z"/>
	<path class="st68" d="M331.54,148.56c-1.12,0.84-2.26,1.64-3.79,1.36c-0.41-0.5-0.9-0.96-1.21-1.51c-1.12-1.97-1.26-4.01,0.1-5.91
		c0.71-0.99,1.84-1.47,3.01-0.86c2.3,1.19,2.24,3.33,2.03,5.48C331.64,147.6,331.59,148.08,331.54,148.56z"/>
	<path class="st69" d="M275.93,121.33c-0.95-0.33-2.68,0.56-2.53-1.35c0.12-1.5,1.57-1.42,2.72-1.43c1.14,0,2.72-0.16,2.78,1.31
		C278.98,121.99,277.02,121,275.93,121.33z"/>
</g>
</svg>
